# Blender v2.79 (sub 0) OBJ File: '3dindicator.blend'
# www.blender.org
mtllib 3dindicator.mtl
o Cube_Cube.001
v -0.500000 -0.500000 0.500000
v -0.500000 0.500000 0.500000
v -0.500000 -0.500000 -0.500000
v -0.500000 0.500000 -0.500000
v 0.500000 -0.500000 0.500000
v 0.500000 0.500000 0.500000
v 0.500000 -0.500000 -0.500000
v 0.500000 0.500000 -0.500000
v 0.999999 4.000000 -0.000000
v 0.980785 4.000000 -0.195090
v 0.923879 4.000000 -0.382683
v 0.831469 4.000000 -0.555570
v 0.707106 4.000000 -0.707107
v 0.555570 4.000000 -0.831470
v 0.382683 4.000000 -0.923880
v 0.195090 4.000000 -0.980785
v -0.000000 4.000000 -1.000000
v -0.195091 4.000000 -0.980785
v -0.382684 4.000000 -0.923880
v -0.555571 4.000000 -0.831470
v -0.707107 4.000000 -0.707107
v -0.831470 4.000000 -0.555570
v -0.923880 4.000000 -0.382683
v -0.980786 4.000000 -0.195090
v -1.000001 4.000000 0.000000
v -0.980786 4.000000 0.195091
v -0.923880 4.000000 0.382684
v -0.831470 4.000000 0.555571
v -0.707107 4.000000 0.707107
v -0.555570 4.000000 0.831470
v -0.382683 4.000000 0.923880
v 0.000001 0.500000 0.000000
v -0.195090 4.000000 0.980785
v 0.000000 4.000000 1.000000
v 0.195091 4.000000 0.980785
v 0.382684 4.000000 0.923879
v 0.555571 4.000000 0.831469
v 0.707107 4.000000 0.707106
v 0.831470 4.000000 0.555569
v 0.923880 4.000000 0.382682
v 0.980785 4.000000 0.195089
v 1.000000 -0.000000 4.000000
v 0.980785 0.195090 4.000000
v 0.923879 0.382683 4.000000
v 0.831470 0.555570 4.000000
v 0.707107 0.707107 4.000000
v 0.555570 0.831470 4.000000
v 0.382683 0.923880 4.000000
v 0.195090 0.980785 4.000000
v 0.000000 1.000000 4.000000
v -0.195090 0.980785 4.000000
v -0.382683 0.923880 4.000000
v -0.555570 0.831470 4.000000
v -0.707107 0.707107 4.000000
v -0.831470 0.555570 4.000000
v -0.923880 0.382683 4.000000
v -0.980785 0.195090 4.000000
v -1.000000 -0.000000 4.000000
v -0.980785 -0.195091 4.000000
v -0.923879 -0.382684 4.000000
v -0.831469 -0.555571 4.000000
v -0.707106 -0.707107 4.000000
v -0.555570 -0.831470 4.000000
v -0.382683 -0.923880 4.000000
v 0.000000 -0.000000 0.500000
v -0.195090 -0.980785 4.000000
v 0.000001 -1.000000 4.000000
v 0.195091 -0.980785 4.000000
v 0.382684 -0.923879 4.000000
v 0.555571 -0.831469 4.000000
v 0.707108 -0.707106 4.000000
v 0.831470 -0.555569 4.000000
v 0.923880 -0.382682 4.000000
v 0.980785 -0.195089 4.000000
v 4.000000 -0.000000 -1.000000
v 4.000000 0.195090 -0.980785
v 4.000000 0.382683 -0.923880
v 4.000000 0.555570 -0.831470
v 4.000000 0.707107 -0.707107
v 4.000000 0.831470 -0.555570
v 4.000000 0.923879 -0.382683
v 4.000000 0.980785 -0.195090
v 4.000000 1.000000 -0.000000
v 4.000000 0.980785 0.195090
v 4.000000 0.923879 0.382683
v 4.000000 0.831470 0.555570
v 4.000000 0.707107 0.707107
v 4.000000 0.555570 0.831470
v 4.000000 0.382683 0.923880
v 4.000000 0.195090 0.980785
v 4.000000 -0.000000 1.000000
v 4.000000 -0.195091 0.980785
v 4.000000 -0.382684 0.923879
v 4.000000 -0.555571 0.831469
v 4.000000 -0.707107 0.707106
v 4.000000 -0.831470 0.555570
v 4.000000 -0.923880 0.382683
v 0.500000 0.000000 0.000000
v 4.000000 -0.980786 0.195089
v 4.000000 -1.000000 -0.000001
v 4.000000 -0.980785 -0.195091
v 4.000000 -0.923879 -0.382684
v 4.000000 -0.831469 -0.555571
v 4.000000 -0.707106 -0.707108
v 4.000000 -0.555569 -0.831470
v 4.000000 -0.382682 -0.923880
v 4.000000 -0.195089 -0.980786
vt 0.812500 0.625000
vt 0.937500 0.625000
vt 0.937500 0.875000
vt 0.812500 0.875000
vt 0.812500 0.625000
vt 0.937500 0.625000
vt 0.937500 0.875000
vt 0.812500 0.875000
vt 0.812500 0.625000
vt 0.937500 0.625000
vt 0.937500 0.875000
vt 0.812500 0.875000
vt 0.812500 0.625000
vt 0.937500 0.625000
vt 0.937500 0.875000
vt 0.812500 0.875000
vt 0.937500 0.625000
vt 0.937500 0.875000
vt 0.812500 0.625000
vt 0.812500 0.875000
vt 0.312500 0.625000
vt 0.437500 0.625000
vt 0.437500 0.875000
vt 0.312500 0.625000
vt 0.437500 0.875000
vt 0.312500 0.625000
vt 0.437500 0.875000
vt 0.312500 0.625000
vt 0.437500 0.875000
vt 0.312500 0.625000
vt 0.437500 0.875000
vt 0.312500 0.625000
vt 0.437500 0.875000
vt 0.312500 0.625000
vt 0.437500 0.875000
vt 0.312500 0.625000
vt 0.437500 0.875000
vt 0.312500 0.625000
vt 0.437500 0.875000
vt 0.312500 0.625000
vt 0.437500 0.875000
vt 0.312500 0.625000
vt 0.437500 0.875000
vt 0.312500 0.625000
vt 0.437500 0.875000
vt 0.312500 0.625000
vt 0.437500 0.875000
vt 0.312500 0.625000
vt 0.437500 0.875000
vt 0.312500 0.625000
vt 0.437500 0.875000
vt 0.312500 0.625000
vt 0.437500 0.875000
vt 0.312500 0.625000
vt 0.437500 0.875000
vt 0.312500 0.625000
vt 0.437500 0.875000
vt 0.312500 0.625000
vt 0.437500 0.875000
vt 0.312500 0.625000
vt 0.437500 0.875000
vt 0.312500 0.625000
vt 0.437500 0.875000
vt 0.312500 0.625000
vt 0.437500 0.875000
vt 0.312500 0.625000
vt 0.437500 0.875000
vt 0.312500 0.625000
vt 0.437500 0.875000
vt 0.312500 0.625000
vt 0.437500 0.875000
vt 0.312500 0.625000
vt 0.437500 0.875000
vt 0.312500 0.625000
vt 0.437500 0.875000
vt 0.312500 0.625000
vt 0.437500 0.875000
vt 0.312500 0.625000
vt 0.437500 0.875000
vt 0.312500 0.625000
vt 0.437500 0.875000
vt 0.312500 0.625000
vt 0.437500 0.875000
vt 0.312500 0.625000
vt 0.437500 0.875000
vt 0.375000 0.875000
vt 0.387193 0.872598
vt 0.398918 0.865485
vt 0.409723 0.853934
vt 0.419194 0.838388
vt 0.426967 0.819446
vt 0.432742 0.797835
vt 0.436299 0.774386
vt 0.437500 0.750000
vt 0.436299 0.725614
vt 0.432742 0.702165
vt 0.426967 0.680554
vt 0.419194 0.661612
vt 0.409723 0.646066
vt 0.398918 0.634515
vt 0.387193 0.627402
vt 0.375000 0.625000
vt 0.362807 0.627402
vt 0.351082 0.634515
vt 0.340277 0.646066
vt 0.330806 0.661612
vt 0.323033 0.680554
vt 0.317258 0.702165
vt 0.313701 0.725614
vt 0.312500 0.750000
vt 0.313701 0.774386
vt 0.317258 0.797836
vt 0.323033 0.819446
vt 0.330806 0.838388
vt 0.340277 0.853934
vt 0.351082 0.865485
vt 0.362807 0.872598
vt 0.562500 0.625000
vt 0.687500 0.625000
vt 0.687500 0.875000
vt 0.562500 0.625000
vt 0.687500 0.875000
vt 0.562500 0.625000
vt 0.687500 0.875000
vt 0.562500 0.625000
vt 0.687500 0.875000
vt 0.562500 0.625000
vt 0.687500 0.875000
vt 0.562500 0.625000
vt 0.687500 0.875000
vt 0.562500 0.625000
vt 0.687500 0.875000
vt 0.562500 0.625000
vt 0.687500 0.875000
vt 0.562500 0.625000
vt 0.687500 0.875000
vt 0.562500 0.625000
vt 0.687500 0.875000
vt 0.562500 0.625000
vt 0.687500 0.875000
vt 0.562500 0.625000
vt 0.687500 0.875000
vt 0.562500 0.625000
vt 0.687500 0.875000
vt 0.562500 0.625000
vt 0.687500 0.875000
vt 0.562500 0.625000
vt 0.687500 0.875000
vt 0.562500 0.625000
vt 0.687500 0.875000
vt 0.562500 0.625000
vt 0.687500 0.875000
vt 0.562500 0.625000
vt 0.687500 0.875000
vt 0.562500 0.625000
vt 0.687500 0.875000
vt 0.562500 0.625000
vt 0.687500 0.875000
vt 0.562500 0.625000
vt 0.687500 0.875000
vt 0.562500 0.625000
vt 0.687500 0.875000
vt 0.562500 0.625000
vt 0.687500 0.875000
vt 0.562500 0.625000
vt 0.687500 0.875000
vt 0.562500 0.625000
vt 0.687500 0.875000
vt 0.562500 0.625000
vt 0.687500 0.875000
vt 0.562500 0.625000
vt 0.687500 0.875000
vt 0.562500 0.625000
vt 0.687500 0.875000
vt 0.562500 0.625000
vt 0.687500 0.875000
vt 0.562500 0.625000
vt 0.687500 0.875000
vt 0.562500 0.625000
vt 0.687500 0.875000
vt 0.562500 0.625000
vt 0.687500 0.875000
vt 0.625000 0.875000
vt 0.637193 0.872598
vt 0.648918 0.865485
vt 0.659723 0.853934
vt 0.669194 0.838388
vt 0.676967 0.819446
vt 0.682742 0.797835
vt 0.686299 0.774386
vt 0.687500 0.750000
vt 0.686299 0.725614
vt 0.682742 0.702165
vt 0.676967 0.680554
vt 0.669194 0.661612
vt 0.659723 0.646066
vt 0.648918 0.634515
vt 0.637193 0.627402
vt 0.625000 0.625000
vt 0.612807 0.627402
vt 0.601082 0.634515
vt 0.590277 0.646066
vt 0.580806 0.661612
vt 0.573033 0.680554
vt 0.567258 0.702165
vt 0.563701 0.725614
vt 0.562500 0.750000
vt 0.563701 0.774386
vt 0.567258 0.797836
vt 0.573033 0.819446
vt 0.580806 0.838388
vt 0.590277 0.853934
vt 0.601082 0.865485
vt 0.612807 0.872598
vt 0.062500 0.625000
vt 0.187500 0.625000
vt 0.187500 0.875000
vt 0.062500 0.625000
vt 0.187500 0.875000
vt 0.062500 0.625000
vt 0.187500 0.875000
vt 0.062500 0.625000
vt 0.187500 0.875000
vt 0.062500 0.625000
vt 0.187500 0.875000
vt 0.062500 0.625000
vt 0.187500 0.875000
vt 0.062500 0.625000
vt 0.187500 0.875000
vt 0.062500 0.625000
vt 0.187500 0.875000
vt 0.062500 0.625000
vt 0.187500 0.875000
vt 0.062500 0.625000
vt 0.187500 0.875000
vt 0.062500 0.625000
vt 0.187500 0.875000
vt 0.062500 0.625000
vt 0.187500 0.875000
vt 0.062500 0.625000
vt 0.187500 0.875000
vt 0.062500 0.625000
vt 0.187500 0.875000
vt 0.062500 0.625000
vt 0.187500 0.875000
vt 0.062500 0.625000
vt 0.187500 0.875000
vt 0.062500 0.625000
vt 0.187500 0.875000
vt 0.062500 0.625000
vt 0.187500 0.875000
vt 0.062500 0.625000
vt 0.187500 0.875000
vt 0.062500 0.625000
vt 0.187500 0.875000
vt 0.062500 0.625000
vt 0.187500 0.875000
vt 0.062500 0.625000
vt 0.187500 0.875000
vt 0.062500 0.625000
vt 0.187500 0.875000
vt 0.062500 0.625000
vt 0.187500 0.875000
vt 0.062500 0.625000
vt 0.187500 0.875000
vt 0.062500 0.625000
vt 0.187500 0.875000
vt 0.062500 0.625000
vt 0.187500 0.875000
vt 0.062500 0.625000
vt 0.187500 0.875000
vt 0.062500 0.625000
vt 0.187500 0.875000
vt 0.062500 0.625000
vt 0.187500 0.875000
vt 0.062500 0.625000
vt 0.187500 0.875000
vt 0.062500 0.625000
vt 0.187500 0.875000
vt 0.125000 0.875000
vt 0.137193 0.872598
vt 0.148918 0.865485
vt 0.159723 0.853934
vt 0.169194 0.838388
vt 0.176967 0.819446
vt 0.182742 0.797835
vt 0.186299 0.774386
vt 0.187500 0.750000
vt 0.186299 0.725614
vt 0.182742 0.702165
vt 0.176967 0.680554
vt 0.169194 0.661612
vt 0.159723 0.646066
vt 0.148918 0.634515
vt 0.137193 0.627402
vt 0.125000 0.625000
vt 0.112807 0.627402
vt 0.101082 0.634515
vt 0.090277 0.646066
vt 0.080806 0.661612
vt 0.073033 0.680554
vt 0.067258 0.702165
vt 0.063701 0.725614
vt 0.062500 0.750000
vt 0.063701 0.774386
vt 0.067258 0.797836
vt 0.073033 0.819446
vt 0.080806 0.838388
vt 0.090277 0.853934
vt 0.101082 0.865485
vt 0.112807 0.872598
vn -1.0000 0.0000 0.0000
vn 0.0000 0.0000 -1.0000
vn 1.0000 0.0000 0.0000
vn 0.0000 0.0000 1.0000
vn 0.0000 -1.0000 0.0000
vn 0.0000 1.0000 0.0000
vn 0.9572 -0.2735 -0.0943
vn 0.9205 -0.2735 -0.2792
vn 0.8483 -0.2735 -0.4534
vn 0.7435 -0.2735 -0.6102
vn 0.6102 -0.2735 -0.7435
vn 0.4534 -0.2735 -0.8483
vn 0.2792 -0.2735 -0.9205
vn 0.0943 -0.2735 -0.9572
vn -0.0943 -0.2735 -0.9572
vn -0.2792 -0.2735 -0.9205
vn -0.4534 -0.2735 -0.8483
vn -0.6102 -0.2735 -0.7435
vn -0.7435 -0.2735 -0.6102
vn -0.8483 -0.2735 -0.4534
vn -0.9205 -0.2735 -0.2792
vn -0.9572 -0.2735 -0.0943
vn -0.9572 -0.2735 0.0943
vn -0.9205 -0.2735 0.2792
vn -0.8483 -0.2735 0.4534
vn -0.7435 -0.2735 0.6102
vn -0.6102 -0.2735 0.7435
vn -0.4534 -0.2735 0.8483
vn -0.2792 -0.2735 0.9205
vn -0.0943 -0.2735 0.9572
vn 0.0943 -0.2735 0.9572
vn 0.2792 -0.2735 0.9205
vn 0.4534 -0.2735 0.8483
vn 0.6102 -0.2735 0.7435
vn 0.7435 -0.2735 0.6102
vn 0.8483 -0.2735 0.4534
vn 0.9205 -0.2735 0.2792
vn 0.9572 -0.2735 0.0943
vn 0.9572 0.0943 -0.2735
vn 0.9205 0.2792 -0.2735
vn 0.8483 0.4534 -0.2735
vn 0.7435 0.6102 -0.2735
vn 0.6102 0.7435 -0.2735
vn 0.4534 0.8483 -0.2735
vn 0.2792 0.9205 -0.2735
vn 0.0943 0.9572 -0.2735
vn -0.0943 0.9572 -0.2735
vn -0.2792 0.9205 -0.2735
vn -0.4534 0.8483 -0.2735
vn -0.6102 0.7435 -0.2735
vn -0.7435 0.6102 -0.2735
vn -0.8483 0.4534 -0.2735
vn -0.9205 0.2792 -0.2735
vn -0.9572 0.0943 -0.2735
vn -0.9572 -0.0943 -0.2735
vn -0.9205 -0.2792 -0.2735
vn -0.8483 -0.4534 -0.2735
vn -0.7435 -0.6102 -0.2735
vn -0.6102 -0.7435 -0.2735
vn -0.4534 -0.8483 -0.2735
vn -0.2792 -0.9205 -0.2735
vn -0.0943 -0.9572 -0.2735
vn 0.0943 -0.9572 -0.2735
vn 0.2792 -0.9205 -0.2735
vn 0.4534 -0.8483 -0.2735
vn 0.6102 -0.7435 -0.2735
vn 0.7435 -0.6102 -0.2735
vn 0.8483 -0.4534 -0.2735
vn 0.9205 -0.2792 -0.2735
vn 0.9572 -0.0943 -0.2735
vn -0.2735 0.0943 -0.9572
vn -0.2735 0.2792 -0.9205
vn -0.2735 0.4534 -0.8483
vn -0.2735 0.6102 -0.7435
vn -0.2735 0.7435 -0.6102
vn -0.2735 0.8483 -0.4534
vn -0.2735 0.9205 -0.2792
vn -0.2735 0.9572 -0.0943
vn -0.2735 0.9572 0.0943
vn -0.2735 0.9205 0.2792
vn -0.2735 0.8483 0.4534
vn -0.2735 0.7435 0.6102
vn -0.2735 0.6102 0.7435
vn -0.2735 0.4534 0.8483
vn -0.2735 0.2792 0.9205
vn -0.2735 0.0943 0.9572
vn -0.2735 -0.0943 0.9572
vn -0.2735 -0.2792 0.9205
vn -0.2735 -0.4534 0.8483
vn -0.2735 -0.6102 0.7435
vn -0.2735 -0.7435 0.6102
vn -0.2735 -0.8483 0.4534
vn -0.2735 -0.9205 0.2792
vn -0.2735 -0.9572 0.0943
vn -0.2735 -0.9572 -0.0943
vn -0.2735 -0.9205 -0.2792
vn -0.2735 -0.8483 -0.4534
vn -0.2735 -0.7435 -0.6102
vn -0.2735 -0.6102 -0.7435
vn -0.2735 -0.4534 -0.8483
vn -0.2735 -0.2792 -0.9205
vn -0.2735 -0.0943 -0.9572
usemtl Material
s off
f 1/1/1 2/2/1 4/3/1 3/4/1
f 3/5/2 4/6/2 8/7/2 7/8/2
f 7/9/3 8/10/3 6/11/3 5/12/3
f 5/13/4 6/14/4 2/15/4 1/16/4
f 3/5/5 7/17/5 5/18/5 1/16/5
f 8/19/6 4/6/6 2/15/6 6/20/6
f 9/21/7 32/22/7 10/23/7
f 10/24/8 32/22/8 11/25/8
f 11/26/9 32/22/9 12/27/9
f 12/28/10 32/22/10 13/29/10
f 13/30/11 32/22/11 14/31/11
f 14/32/12 32/22/12 15/33/12
f 15/34/13 32/22/13 16/35/13
f 16/36/14 32/22/14 17/37/14
f 17/38/15 32/22/15 18/39/15
f 18/40/16 32/22/16 19/41/16
f 19/42/17 32/22/17 20/43/17
f 20/44/18 32/22/18 21/45/18
f 21/46/19 32/22/19 22/47/19
f 22/48/20 32/22/20 23/49/20
f 23/50/21 32/22/21 24/51/21
f 24/52/22 32/22/22 25/53/22
f 25/54/23 32/22/23 26/55/23
f 26/56/24 32/22/24 27/57/24
f 27/58/25 32/22/25 28/59/25
f 28/60/26 32/22/26 29/61/26
f 29/62/27 32/22/27 30/63/27
f 30/64/28 32/22/28 31/65/28
f 31/66/29 32/22/29 33/67/29
f 33/68/30 32/22/30 34/69/30
f 34/70/31 32/22/31 35/71/31
f 35/72/32 32/22/32 36/73/32
f 36/74/33 32/22/33 37/75/33
f 37/76/34 32/22/34 38/77/34
f 38/78/35 32/22/35 39/79/35
f 39/80/36 32/22/36 40/81/36
f 40/82/37 32/22/37 41/83/37
f 41/84/38 32/22/38 9/85/38
f 9/86/6 10/87/6 11/88/6 12/89/6 13/90/6 14/91/6 15/92/6 16/93/6 17/94/6 18/95/6 19/96/6 20/97/6 21/98/6 22/99/6 23/100/6 24/101/6 25/102/6 26/103/6 27/104/6 28/105/6 29/106/6 30/107/6 31/108/6 33/109/6 34/110/6 35/111/6 36/112/6 37/113/6 38/114/6 39/115/6 40/116/6 41/117/6
f 42/118/39 65/119/39 43/120/39
f 43/121/40 65/119/40 44/122/40
f 44/123/41 65/119/41 45/124/41
f 45/125/42 65/119/42 46/126/42
f 46/127/43 65/119/43 47/128/43
f 47/129/44 65/119/44 48/130/44
f 48/131/45 65/119/45 49/132/45
f 49/133/46 65/119/46 50/134/46
f 50/135/47 65/119/47 51/136/47
f 51/137/48 65/119/48 52/138/48
f 52/139/49 65/119/49 53/140/49
f 53/141/50 65/119/50 54/142/50
f 54/143/51 65/119/51 55/144/51
f 55/145/52 65/119/52 56/146/52
f 56/147/53 65/119/53 57/148/53
f 57/149/54 65/119/54 58/150/54
f 58/151/55 65/119/55 59/152/55
f 59/153/56 65/119/56 60/154/56
f 60/155/57 65/119/57 61/156/57
f 61/157/58 65/119/58 62/158/58
f 62/159/59 65/119/59 63/160/59
f 63/161/60 65/119/60 64/162/60
f 64/163/61 65/119/61 66/164/61
f 66/165/62 65/119/62 67/166/62
f 67/167/63 65/119/63 68/168/63
f 68/169/64 65/119/64 69/170/64
f 69/171/65 65/119/65 70/172/65
f 70/173/66 65/119/66 71/174/66
f 71/175/67 65/119/67 72/176/67
f 72/177/68 65/119/68 73/178/68
f 73/179/69 65/119/69 74/180/69
f 74/181/70 65/119/70 42/182/70
f 42/183/4 43/184/4 44/185/4 45/186/4 46/187/4 47/188/4 48/189/4 49/190/4 50/191/4 51/192/4 52/193/4 53/194/4 54/195/4 55/196/4 56/197/4 57/198/4 58/199/4 59/200/4 60/201/4 61/202/4 62/203/4 63/204/4 64/205/4 66/206/4 67/207/4 68/208/4 69/209/4 70/210/4 71/211/4 72/212/4 73/213/4 74/214/4
f 75/215/71 98/216/71 76/217/71
f 76/218/72 98/216/72 77/219/72
f 77/220/73 98/216/73 78/221/73
f 78/222/74 98/216/74 79/223/74
f 79/224/75 98/216/75 80/225/75
f 80/226/76 98/216/76 81/227/76
f 81/228/77 98/216/77 82/229/77
f 82/230/78 98/216/78 83/231/78
f 83/232/79 98/216/79 84/233/79
f 84/234/80 98/216/80 85/235/80
f 85/236/81 98/216/81 86/237/81
f 86/238/82 98/216/82 87/239/82
f 87/240/83 98/216/83 88/241/83
f 88/242/84 98/216/84 89/243/84
f 89/244/85 98/216/85 90/245/85
f 90/246/86 98/216/86 91/247/86
f 91/248/87 98/216/87 92/249/87
f 92/250/88 98/216/88 93/251/88
f 93/252/89 98/216/89 94/253/89
f 94/254/90 98/216/90 95/255/90
f 95/256/91 98/216/91 96/257/91
f 96/258/92 98/216/92 97/259/92
f 97/260/93 98/216/93 99/261/93
f 99/262/94 98/216/94 100/263/94
f 100/264/95 98/216/95 101/265/95
f 101/266/96 98/216/96 102/267/96
f 102/268/97 98/216/97 103/269/97
f 103/270/98 98/216/98 104/271/98
f 104/272/99 98/216/99 105/273/99
f 105/274/100 98/216/100 106/275/100
f 106/276/101 98/216/101 107/277/101
f 107/278/102 98/216/102 75/279/102
f 75/280/3 76/281/3 77/282/3 78/283/3 79/284/3 80/285/3 81/286/3 82/287/3 83/288/3 84/289/3 85/290/3 86/291/3 87/292/3 88/293/3 89/294/3 90/295/3 91/296/3 92/297/3 93/298/3 94/299/3 95/300/3 96/301/3 97/302/3 99/303/3 100/304/3 101/305/3 102/306/3 103/307/3 104/308/3 105/309/3 106/310/3 107/311/3
