# Blender v2.79 (sub 0) OBJ File: 'scale_2_axis.blend'
# www.blender.org
mtllib scale_2_axis.mtl
o gizmo_Cube.002
v 0.000000 0.000000 0.000000
v 3.000000 0.000000 0.000000
v 0.000000 3.000000 0.000000
v 0.000000 3.000000 0.000000
v 3.000000 0.000000 0.000000
v 0.000000 0.000000 0.000000
vt 0.187527 0.125018
vt 0.062544 0.374982
vt 0.062544 0.125018
vt 0.187527 0.125018
vt 0.062544 0.125018
vt 0.062544 0.374982
vn 0.0000 0.0000 1.0000
vn 0.0000 0.0000 -1.0000
usemtl Material
s off
f 2/1/1 3/2/1 1/3/1
f 5/4/2 6/5/2 4/6/2
