# Blender v2.80 (sub 75) OBJ File: 'selection.blend'
# www.blender.org
mtllib spawn.mtl
o Cone.004_Cone.010
v -0.000001 3.000000 1.000001
v 0.098016 3.000000 0.995186
v 0.195090 3.000000 0.980787
v 0.290284 3.000000 0.956942
v 0.382683 3.000000 0.923881
v 0.471396 3.000000 0.881922
v 0.555569 3.000000 0.831471
v 0.634392 3.000000 0.773012
v 0.707106 3.000000 0.707108
v 0.773010 3.000000 0.634394
v 0.831469 3.000000 0.555572
v 0.881920 3.000000 0.471398
v 0.923879 3.000000 0.382684
v 0.956940 3.000000 0.290286
v 0.980785 3.000000 0.195091
v 0.995184 3.000000 0.098018
v 0.999999 3.000000 0.000001
v 0.995184 3.000000 -0.098016
v 0.980784 3.000000 -0.195089
v 0.956939 3.000000 -0.290284
v 0.923879 3.000000 -0.382683
v 0.881920 3.000000 -0.471396
v 0.831469 3.000000 -0.555569
v 0.773009 3.000000 -0.634392
v 0.707106 3.000000 -0.707106
v 0.634392 3.000000 -0.773010
v 0.555569 3.000000 -0.831469
v 0.471395 3.000000 -0.881920
v 0.382682 3.000000 -0.923878
v 0.290283 3.000000 -0.956939
v 0.195089 3.000000 -0.980784
v 0.098016 3.000000 -0.995184
v -0.000002 3.000000 -0.999999
v -0.098019 3.000000 -0.995183
v -0.195092 3.000000 -0.980784
v -0.290286 3.000000 -0.956939
v -0.382685 3.000000 -0.923878
v -0.471398 3.000000 -0.881920
v -0.555572 3.000000 -0.831468
v -0.634395 3.000000 -0.773009
v -0.707108 3.000000 -0.707105
v -0.773012 3.000000 -0.634391
v -0.831471 3.000000 -0.555568
v -0.000000 0.000000 -0.000001
v -0.881922 3.000000 -0.471395
v -0.923880 3.000000 -0.382682
v -0.956941 3.000000 -0.290283
v -0.980786 3.000000 -0.195089
v -0.995185 3.000000 -0.098016
v -1.000001 3.000000 0.000001
v -0.995186 3.000000 0.098018
v -0.980786 3.000000 0.195091
v -0.956941 3.000000 0.290285
v -0.923881 3.000000 0.382684
v -0.881923 3.000000 0.471397
v -0.831471 3.000000 0.555570
v -0.773012 3.000000 0.634393
v -0.707109 3.000000 0.707107
v -0.634396 3.000000 0.773010
v -0.555573 3.000000 0.831469
v -0.471400 3.000000 0.881921
v -0.382687 3.000000 0.923880
v -0.290288 3.000000 0.956941
v -0.195094 3.000000 0.980786
v -0.098021 3.000000 0.995186
v -0.000001 3.000000 0.999001
v 0.097918 3.000000 0.994191
v 0.194894 3.000000 0.979806
v 0.289994 3.000000 0.955985
v 0.382300 3.000000 0.922957
v 0.470925 3.000000 0.881041
v 0.555014 3.000000 0.830639
v 0.633758 3.000000 0.772239
v 0.706399 3.000000 0.706401
v 0.772237 3.000000 0.633760
v 0.830637 3.000000 0.555016
v 0.881039 3.000000 0.470927
v 0.922955 3.000000 0.382302
v 0.955983 3.000000 0.289995
v 0.979804 3.000000 0.194896
v 0.994189 3.000000 0.097920
v 0.998999 3.000000 0.000001
v 0.994189 3.000000 -0.097918
v 0.979804 3.000000 -0.194894
v 0.955983 3.000000 -0.289994
v 0.922955 3.000000 -0.382300
v 0.881038 3.000000 -0.470925
v 0.830637 3.000000 -0.555014
v 0.772236 3.000000 -0.633758
v 0.706399 3.000000 -0.706399
v 0.633758 3.000000 -0.772237
v 0.555013 3.000000 -0.830637
v 0.470924 3.000000 -0.881038
v 0.382299 3.000000 -0.922955
v 0.289993 3.000000 -0.955982
v 0.194894 3.000000 -0.979803
v 0.097918 3.000000 -0.994189
v -0.000002 3.000000 -0.998999
v -0.097921 3.000000 -0.994188
v -0.194897 3.000000 -0.979803
v -0.289996 3.000000 -0.955982
v -0.382302 3.000000 -0.922954
v -0.470927 3.000000 -0.881037
v -0.555016 3.000000 -0.830636
v -0.633761 3.000000 -0.772236
v -0.706401 3.000000 -0.706398
v -0.772239 3.000000 -0.633757
v -0.830639 3.000000 -0.555013
v -0.881040 3.000000 -0.470924
v -0.922957 3.000000 -0.382299
v -0.955984 3.000000 -0.289993
v -0.979805 3.000000 -0.194894
v -0.994190 3.000000 -0.097918
v -0.999001 3.000000 0.000001
v -0.994190 3.000000 0.097920
v -0.979805 3.000000 0.194896
v -0.955984 3.000000 0.289994
v -0.922957 3.000000 0.382301
v -0.881041 3.000000 0.470925
v -0.830640 3.000000 0.555014
v -0.772239 3.000000 0.633759
v -0.706402 3.000000 0.706400
v -0.633761 3.000000 0.772237
v -0.555017 3.000000 0.830638
v -0.470928 3.000000 0.881039
v -0.382304 3.000000 0.922956
v -0.289998 3.000000 0.955984
v -0.194899 3.000000 0.979805
v -0.097923 3.000000 0.994190
vt 0.000000 0.000000
vt 1.000000 0.000000
vt 1.000000 1.000000
vt 0.000000 0.000000
vt 1.000000 1.000000
vt 0.000000 0.000000
vt 1.000000 1.000000
vt 0.000000 0.000000
vt 1.000000 1.000000
vt 0.000000 0.000000
vt 1.000000 1.000000
vt 0.000000 0.000000
vt 1.000000 1.000000
vt 0.000000 0.000000
vt 1.000000 1.000000
vt 0.000000 0.000000
vt 1.000000 1.000000
vt 0.000000 0.000000
vt 1.000000 1.000000
vt 0.000000 0.000000
vt 1.000000 1.000000
vt 0.000000 0.000000
vt 1.000000 1.000000
vt 0.000000 0.000000
vt 1.000000 1.000000
vt 0.000000 0.000000
vt 1.000000 1.000000
vt 0.000000 0.000000
vt 1.000000 1.000000
vt 0.000000 0.000000
vt 1.000000 1.000000
vt 0.000000 0.000000
vt 1.000000 1.000000
vt 0.000000 0.000000
vt 1.000000 1.000000
vt 0.000000 0.000000
vt 1.000000 1.000000
vt 0.000000 0.000000
vt 1.000000 1.000000
vt 0.000000 0.000000
vt 1.000000 1.000000
vt 0.000000 0.000000
vt 1.000000 1.000000
vt 0.000000 0.000000
vt 1.000000 1.000000
vt 0.000000 0.000000
vt 1.000000 1.000000
vt 0.000000 0.000000
vt 1.000000 1.000000
vt 0.000000 0.000000
vt 1.000000 1.000000
vt 0.000000 0.000000
vt 1.000000 1.000000
vt 0.000000 0.000000
vt 1.000000 1.000000
vt 0.000000 0.000000
vt 1.000000 1.000000
vt 0.000000 0.000000
vt 1.000000 1.000000
vt 0.000000 0.000000
vt 1.000000 1.000000
vt 0.000000 0.000000
vt 1.000000 1.000000
vt 0.000000 0.000000
vt 1.000000 1.000000
vt 0.000000 0.000000
vt 1.000000 1.000000
vt 0.000000 0.000000
vt 1.000000 1.000000
vt 0.000000 0.000000
vt 1.000000 1.000000
vt 0.000000 0.000000
vt 1.000000 1.000000
vt 0.000000 0.000000
vt 1.000000 1.000000
vt 0.000000 0.000000
vt 1.000000 1.000000
vt 0.000000 0.000000
vt 1.000000 1.000000
vt 0.000000 0.000000
vt 1.000000 1.000000
vt 0.000000 0.000000
vt 1.000000 1.000000
vt 0.000000 0.000000
vt 1.000000 1.000000
vt 0.000000 0.000000
vt 1.000000 1.000000
vt 0.000000 0.000000
vt 1.000000 1.000000
vt 0.000000 0.000000
vt 1.000000 1.000000
vt 0.000000 0.000000
vt 1.000000 1.000000
vt 0.000000 0.000000
vt 1.000000 1.000000
vt 0.000000 0.000000
vt 1.000000 1.000000
vt 0.000000 0.000000
vt 1.000000 1.000000
vt 0.000000 0.000000
vt 1.000000 1.000000
vt 0.000000 0.000000
vt 1.000000 1.000000
vt 0.000000 0.000000
vt 1.000000 1.000000
vt 0.000000 0.000000
vt 1.000000 1.000000
vt 0.000000 0.000000
vt 1.000000 1.000000
vt 0.000000 0.000000
vt 1.000000 1.000000
vt 0.000000 0.000000
vt 1.000000 1.000000
vt 0.000000 0.000000
vt 1.000000 1.000000
vt 0.000000 0.000000
vt 1.000000 1.000000
vt 0.000000 0.000000
vt 1.000000 1.000000
vt 0.000000 0.000000
vt 1.000000 1.000000
vt 0.000000 0.000000
vt 1.000000 1.000000
vt 0.000000 0.000000
vt 1.000000 1.000000
vt 0.000000 0.000000
vt 1.000000 1.000000
vt 0.000000 0.000000
vt 1.000000 1.000000
vt 1.000000 0.000000
vt 1.000000 1.000000
vt 0.000000 1.000000
vt 0.500000 1.000000
vt 0.549009 0.997592
vt 0.597545 0.990393
vt 0.645142 0.978470
vt 0.691342 0.961940
vt 0.735698 0.940961
vt 0.777785 0.915735
vt 0.817197 0.886505
vt 0.853553 0.853553
vt 0.886505 0.817197
vt 0.915735 0.777785
vt 0.940961 0.735698
vt 0.961940 0.691342
vt 0.978470 0.645142
vt 0.990393 0.597545
vt 0.997592 0.549008
vt 1.000000 0.500000
vt 0.997592 0.450991
vt 0.990393 0.402455
vt 0.978470 0.354858
vt 0.961940 0.308658
vt 0.940961 0.264301
vt 0.915735 0.222215
vt 0.886505 0.182803
vt 0.853553 0.146446
vt 0.817196 0.113495
vt 0.777785 0.084265
vt 0.735698 0.059039
vt 0.691341 0.038060
vt 0.645142 0.021530
vt 0.597545 0.009607
vt 0.549008 0.002408
vt 0.500000 0.000000
vt 0.450991 0.002408
vt 0.402454 0.009607
vt 0.354857 0.021530
vt 0.308658 0.038060
vt 0.264301 0.059040
vt 0.222214 0.084265
vt 0.182803 0.113495
vt 0.146446 0.146447
vt 0.113494 0.182804
vt 0.084265 0.222215
vt 0.059039 0.264302
vt 0.038060 0.308658
vt 0.021530 0.354858
vt 0.009607 0.402455
vt 0.002408 0.450991
vt 0.000000 0.500000
vt 0.002408 0.549008
vt 0.009607 0.597545
vt 0.021530 0.645142
vt 0.038060 0.691341
vt 0.059039 0.735698
vt 0.084265 0.777784
vt 0.113494 0.817196
vt 0.146446 0.853553
vt 0.182802 0.886505
vt 0.222214 0.915734
vt 0.264300 0.940960
vt 0.308657 0.961939
vt 0.354856 0.978470
vt 0.402453 0.990392
vt 0.450990 0.997592
vt 1.000000 0.000000
vt 1.000000 1.000000
vt 0.000000 1.000000
vt 1.000000 0.000000
vt 1.000000 1.000000
vt 0.000000 1.000000
vt 1.000000 0.000000
vt 1.000000 1.000000
vt 0.000000 1.000000
vt 1.000000 0.000000
vt 1.000000 1.000000
vt 0.000000 1.000000
vt 1.000000 0.000000
vt 1.000000 1.000000
vt 0.000000 1.000000
vt 1.000000 0.000000
vt 1.000000 1.000000
vt 0.000000 1.000000
vt 1.000000 0.000000
vt 1.000000 1.000000
vt 0.000000 1.000000
vt 1.000000 0.000000
vt 1.000000 1.000000
vt 0.000000 1.000000
vt 1.000000 0.000000
vt 1.000000 1.000000
vt 0.000000 1.000000
vt 1.000000 0.000000
vt 1.000000 1.000000
vt 0.000000 1.000000
vt 1.000000 0.000000
vt 1.000000 1.000000
vt 0.000000 1.000000
vt 1.000000 0.000000
vt 1.000000 1.000000
vt 0.000000 1.000000
vt 1.000000 0.000000
vt 1.000000 1.000000
vt 0.000000 1.000000
vt 1.000000 0.000000
vt 1.000000 1.000000
vt 0.000000 1.000000
vt 1.000000 0.000000
vt 1.000000 1.000000
vt 0.000000 1.000000
vt 1.000000 0.000000
vt 1.000000 1.000000
vt 0.000000 1.000000
vt 1.000000 0.000000
vt 1.000000 1.000000
vt 0.000000 1.000000
vt 1.000000 0.000000
vt 1.000000 1.000000
vt 0.000000 1.000000
vt 1.000000 0.000000
vt 1.000000 1.000000
vt 0.000000 1.000000
vt 1.000000 0.000000
vt 1.000000 1.000000
vt 0.000000 1.000000
vt 1.000000 0.000000
vt 1.000000 1.000000
vt 0.000000 1.000000
vt 1.000000 0.000000
vt 1.000000 1.000000
vt 0.000000 1.000000
vt 1.000000 0.000000
vt 1.000000 1.000000
vt 0.000000 1.000000
vt 1.000000 0.000000
vt 1.000000 1.000000
vt 0.000000 1.000000
vt 1.000000 0.000000
vt 1.000000 1.000000
vt 0.000000 1.000000
vt 1.000000 0.000000
vt 1.000000 1.000000
vt 0.000000 1.000000
vt 1.000000 0.000000
vt 1.000000 1.000000
vt 0.000000 1.000000
vt 1.000000 0.000000
vt 1.000000 1.000000
vt 0.000000 1.000000
vt 1.000000 0.000000
vt 1.000000 1.000000
vt 0.000000 1.000000
vt 1.000000 0.000000
vt 1.000000 1.000000
vt 0.000000 1.000000
vt 1.000000 0.000000
vt 1.000000 1.000000
vt 0.000000 1.000000
vt 1.000000 0.000000
vt 1.000000 1.000000
vt 0.000000 1.000000
vt 1.000000 0.000000
vt 1.000000 1.000000
vt 0.000000 1.000000
vt 1.000000 0.000000
vt 1.000000 1.000000
vt 0.000000 1.000000
vt 1.000000 0.000000
vt 1.000000 1.000000
vt 0.000000 1.000000
vt 1.000000 0.000000
vt 1.000000 1.000000
vt 0.000000 1.000000
vt 1.000000 0.000000
vt 1.000000 1.000000
vt 0.000000 1.000000
vt 1.000000 0.000000
vt 1.000000 1.000000
vt 0.000000 1.000000
vt 1.000000 0.000000
vt 1.000000 1.000000
vt 0.000000 1.000000
vt 1.000000 0.000000
vt 1.000000 1.000000
vt 0.000000 1.000000
vt 1.000000 0.000000
vt 1.000000 1.000000
vt 0.000000 1.000000
vt 1.000000 0.000000
vt 1.000000 1.000000
vt 0.000000 1.000000
vt 1.000000 0.000000
vt 1.000000 1.000000
vt 0.000000 1.000000
vt 1.000000 0.000000
vt 1.000000 1.000000
vt 0.000000 1.000000
vt 1.000000 0.000000
vt 1.000000 1.000000
vt 0.000000 1.000000
vt 1.000000 0.000000
vt 1.000000 1.000000
vt 0.000000 1.000000
vt 1.000000 0.000000
vt 1.000000 1.000000
vt 0.000000 1.000000
vt 1.000000 0.000000
vt 1.000000 1.000000
vt 0.000000 1.000000
vt 1.000000 0.000000
vt 1.000000 1.000000
vt 0.000000 1.000000
vt 1.000000 0.000000
vt 1.000000 1.000000
vt 0.000000 1.000000
vt 1.000000 0.000000
vt 1.000000 1.000000
vt 0.000000 1.000000
vt 1.000000 0.000000
vt 1.000000 1.000000
vt 0.000000 1.000000
vt 1.000000 0.000000
vt 1.000000 1.000000
vt 0.000000 1.000000
vt 1.000000 0.000000
vt 1.000000 1.000000
vt 0.000000 1.000000
vt 1.000000 0.000000
vt 1.000000 1.000000
vt 0.000000 1.000000
vt 1.000000 0.000000
vt 1.000000 1.000000
vt 0.000000 1.000000
vt 1.000000 0.000000
vt 1.000000 1.000000
vt 0.000000 1.000000
vt 1.000000 0.000000
vt 1.000000 1.000000
vt 0.000000 1.000000
vt 1.000000 0.000000
vt 1.000000 1.000000
vt 0.000000 1.000000
vt 1.000000 0.000000
vt 1.000000 1.000000
vt 0.000000 1.000000
vt 1.000000 0.000000
vt 1.000000 1.000000
vt 0.000000 1.000000
vt 1.000000 0.000000
vt 1.000000 1.000000
vt 0.000000 1.000000
vt 1.000000 0.000000
vt 1.000000 1.000000
vt 0.000000 1.000000
vn 0.0000 0.5730 0.8195
vn 0.0000 -1.0000 0.0000
vn 0.0803 0.5730 0.8156
vn 0.1599 0.5730 0.8038
vn 0.2379 0.5730 0.7843
vn 0.3136 0.5730 0.7572
vn 0.3863 0.5730 0.7228
vn 0.4553 0.5730 0.6814
vn 0.5199 0.5730 0.6335
vn 0.5795 0.5730 0.5795
vn 0.6335 0.5730 0.5199
vn 0.6814 0.5730 0.4553
vn 0.7228 0.5730 0.3863
vn 0.7572 0.5730 0.3136
vn 0.7843 0.5730 0.2379
vn 0.8038 0.5730 0.1599
vn 0.8156 0.5730 0.0803
vn 0.8195 0.5730 0.0000
vn 0.8156 0.5730 -0.0803
vn 0.8038 0.5730 -0.1599
vn 0.7843 0.5730 -0.2379
vn 0.7572 0.5730 -0.3136
vn 0.7228 0.5730 -0.3863
vn 0.6814 0.5730 -0.4553
vn 0.6335 0.5730 -0.5199
vn 0.5795 0.5730 -0.5795
vn 0.5199 0.5730 -0.6335
vn 0.4553 0.5730 -0.6814
vn 0.3863 0.5730 -0.7228
vn 0.3136 0.5730 -0.7572
vn 0.2379 0.5730 -0.7843
vn 0.1599 0.5730 -0.8038
vn 0.0803 0.5730 -0.8156
vn 0.0000 0.5730 -0.8195
vn -0.0803 0.5730 -0.8156
vn -0.1599 0.5730 -0.8038
vn -0.2379 0.5730 -0.7843
vn -0.3136 0.5730 -0.7572
vn -0.3863 0.5730 -0.7228
vn -0.4553 0.5730 -0.6814
vn -0.5199 0.5730 -0.6335
vn -0.5795 0.5730 -0.5795
vn -0.6335 0.5730 -0.5199
vn -0.6814 0.5730 -0.4553
vn -0.7228 0.5730 -0.3863
vn -0.7572 0.5730 -0.3136
vn -0.7843 0.5730 -0.2379
vn -0.8038 0.5730 -0.1599
vn -0.8156 0.5730 -0.0803
vn -0.8195 0.5730 0.0000
vn -0.8156 0.5730 0.0803
vn -0.8038 0.5730 0.1599
vn -0.7843 0.5730 0.2379
vn -0.7572 0.5730 0.3136
vn -0.7228 0.5730 0.3863
vn -0.6814 0.5730 0.4553
vn -0.6335 0.5730 0.5199
vn -0.5795 0.5730 0.5795
vn -0.5199 0.5730 0.6335
vn -0.4553 0.5730 0.6814
vn -0.3863 0.5730 0.7228
vn -0.3136 0.5730 0.7572
vn -0.2379 0.5730 0.7843
vn -0.1599 0.5730 0.8038
vn -0.0803 0.5730 0.8156
vn 0.0000 1.0000 0.0000
usemtl None
s 1
f 1/1/1 44/2/2 2/3/3
f 2/4/3 44/2/2 3/5/4
f 3/6/4 44/2/2 4/7/5
f 4/8/5 44/2/2 5/9/6
f 5/10/6 44/2/2 6/11/7
f 6/12/7 44/2/2 7/13/8
f 7/14/8 44/2/2 8/15/9
f 8/16/9 44/2/2 9/17/10
f 9/18/10 44/2/2 10/19/11
f 10/20/11 44/2/2 11/21/12
f 11/22/12 44/2/2 12/23/13
f 12/24/13 44/2/2 13/25/14
f 13/26/14 44/2/2 14/27/15
f 14/28/15 44/2/2 15/29/16
f 15/30/16 44/2/2 16/31/17
f 16/32/17 44/2/2 17/33/18
f 17/34/18 44/2/2 18/35/19
f 18/36/19 44/2/2 19/37/20
f 19/38/20 44/2/2 20/39/21
f 20/40/21 44/2/2 21/41/22
f 21/42/22 44/2/2 22/43/23
f 22/44/23 44/2/2 23/45/24
f 23/46/24 44/2/2 24/47/25
f 24/48/25 44/2/2 25/49/26
f 25/50/26 44/2/2 26/51/27
f 26/52/27 44/2/2 27/53/28
f 27/54/28 44/2/2 28/55/29
f 28/56/29 44/2/2 29/57/30
f 29/58/30 44/2/2 30/59/31
f 30/60/31 44/2/2 31/61/32
f 31/62/32 44/2/2 32/63/33
f 32/64/33 44/2/2 33/65/34
f 33/66/34 44/2/2 34/67/35
f 34/68/35 44/2/2 35/69/36
f 35/70/36 44/2/2 36/71/37
f 36/72/37 44/2/2 37/73/38
f 37/74/38 44/2/2 38/75/39
f 38/76/39 44/2/2 39/77/40
f 39/78/40 44/2/2 40/79/41
f 40/80/41 44/2/2 41/81/42
f 41/82/42 44/2/2 42/83/43
f 42/84/43 44/2/2 43/85/44
f 43/86/44 44/2/2 45/87/45
f 45/88/45 44/2/2 46/89/46
f 46/90/46 44/2/2 47/91/47
f 47/92/47 44/2/2 48/93/48
f 48/94/48 44/2/2 49/95/49
f 49/96/49 44/2/2 50/97/50
f 50/98/50 44/2/2 51/99/51
f 51/100/51 44/2/2 52/101/52
f 52/102/52 44/2/2 53/103/53
f 53/104/53 44/2/2 54/105/54
f 54/106/54 44/2/2 55/107/55
f 55/108/55 44/2/2 56/109/56
f 56/110/56 44/2/2 57/111/57
f 57/112/57 44/2/2 58/113/58
f 58/114/58 44/2/2 59/115/59
f 59/116/59 44/2/2 60/117/60
f 60/118/60 44/2/2 61/119/61
f 61/120/61 44/2/2 62/121/62
f 62/122/62 44/2/2 63/123/63
f 63/124/63 44/2/2 64/125/64
f 64/126/64 44/2/2 65/127/65
f 65/128/65 44/2/2 1/129/1
f 48/94/48 49/130/49 113/131/66 112/132/66
f 66/133/66 67/134/66 68/135/66 69/136/66 70/137/66 71/138/66 72/139/66 73/140/66 74/141/66 75/142/66 76/143/66 77/144/66 78/145/66 79/146/66 80/147/66 81/148/66 82/149/66 83/150/66 84/151/66 85/152/66 86/153/66 87/154/66 88/155/66 89/156/66 90/157/66 91/158/66 92/159/66 93/160/66 94/161/66 95/162/66 96/163/66 97/164/66 98/165/66 99/166/66 100/167/66 101/168/66 102/169/66 103/170/66 104/171/66 105/172/66 106/173/66 107/174/66 108/175/66 109/176/66 110/177/66 111/178/66 112/179/66 113/180/66 114/181/66 115/182/66 116/183/66 117/184/66 118/185/66 119/186/66 120/187/66 121/188/66 122/189/66 123/190/66 124/191/66 125/192/66 126/193/66 127/194/66 128/195/66 129/196/66
f 35/70/36 36/197/37 101/198/66 100/199/66
f 22/44/23 23/200/24 88/201/66 87/202/66
f 9/18/10 10/203/11 75/204/66 74/205/66
f 62/122/62 63/206/63 127/207/66 126/208/66
f 49/96/49 50/209/50 114/210/66 113/211/66
f 36/72/37 37/212/38 102/213/66 101/214/66
f 23/46/24 24/215/25 89/216/66 88/217/66
f 10/20/11 11/218/12 76/219/66 75/220/66
f 63/124/63 64/221/64 128/222/66 127/223/66
f 50/98/50 51/224/51 115/225/66 114/226/66
f 37/74/38 38/227/39 103/228/66 102/229/66
f 24/48/25 25/230/26 90/231/66 89/232/66
f 11/22/12 12/233/13 77/234/66 76/235/66
f 64/126/64 65/236/65 129/237/66 128/238/66
f 51/100/51 52/239/52 116/240/66 115/241/66
f 65/128/65 1/242/1 66/243/66 129/244/66
f 38/76/39 39/245/40 104/246/66 103/247/66
f 25/50/26 26/248/27 91/249/66 90/250/66
f 12/24/13 13/251/14 78/252/66 77/253/66
f 52/102/52 53/254/53 117/255/66 116/256/66
f 39/78/40 40/257/41 105/258/66 104/259/66
f 26/52/27 27/260/28 92/261/66 91/262/66
f 13/26/14 14/263/15 79/264/66 78/265/66
f 53/104/53 54/266/54 118/267/66 117/268/66
f 1/1/1 2/269/3 67/270/66 66/271/66
f 40/80/41 41/272/42 106/273/66 105/274/66
f 27/54/28 28/275/29 93/276/66 92/277/66
f 14/28/15 15/278/16 80/279/66 79/280/66
f 54/106/54 55/281/55 119/282/66 118/283/66
f 41/82/42 42/284/43 107/285/66 106/286/66
f 28/56/29 29/287/30 94/288/66 93/289/66
f 15/30/16 16/290/17 81/291/66 80/292/66
f 2/4/3 3/293/4 68/294/66 67/295/66
f 55/108/55 56/296/56 120/297/66 119/298/66
f 42/84/43 43/299/44 108/300/66 107/301/66
f 29/58/30 30/302/31 95/303/66 94/304/66
f 16/32/17 17/305/18 82/306/66 81/307/66
f 3/6/4 4/308/5 69/309/66 68/310/66
f 56/110/56 57/311/57 121/312/66 120/313/66
f 30/60/31 31/314/32 96/315/66 95/316/66
f 17/34/18 18/317/19 83/318/66 82/319/66
f 4/8/5 5/320/6 70/321/66 69/322/66
f 57/112/57 58/323/58 122/324/66 121/325/66
f 43/86/44 45/326/45 109/327/66 108/328/66
f 31/62/32 32/329/33 97/330/66 96/331/66
f 18/36/19 19/332/20 84/333/66 83/334/66
f 5/10/6 6/335/7 71/336/66 70/337/66
f 58/114/58 59/338/59 123/339/66 122/340/66
f 45/88/45 46/341/46 110/342/66 109/343/66
f 32/64/33 33/344/34 98/345/66 97/346/66
f 19/38/20 20/347/21 85/348/66 84/349/66
f 6/12/7 7/350/8 72/351/66 71/352/66
f 59/116/59 60/353/60 124/354/66 123/355/66
f 46/90/46 47/356/47 111/357/66 110/358/66
f 33/66/34 34/359/35 99/360/66 98/361/66
f 20/40/21 21/362/22 86/363/66 85/364/66
f 7/14/8 8/365/9 73/366/66 72/367/66
f 60/118/60 61/368/61 125/369/66 124/370/66
f 47/92/47 48/371/48 112/372/66 111/373/66
f 34/68/35 35/374/36 100/375/66 99/376/66
f 21/42/22 22/377/23 87/378/66 86/379/66
f 8/16/9 9/380/10 74/381/66 73/382/66
f 61/120/61 62/383/62 126/384/66 125/385/66
