# Blender v2.79 (sub 0) OBJ File: 'translate_2_axis.blend'
# www.blender.org
mtllib translate_2_axis.mtl
o gizmo.001_Cone.000
v -0.000000 2.000000 0.000000
v -0.000000 -0.000000 0.000000
v 2.000000 2.000000 0.000000
v 2.000000 0.000000 0.000000
v 2.000000 0.000000 0.000000
v 2.000000 2.000000 0.000000
v -0.000000 -0.000000 0.000000
v -0.000000 2.000000 0.000000
vt 0.187527 0.125018
vt 0.062544 0.374982
vt 0.062544 0.125018
vt 0.187527 0.374982
vt 0.187527 0.125018
vt 0.062544 0.374982
vt 0.187527 0.374982
vt 0.062544 0.125018
vn 0.0000 0.0000 1.0000
vn -0.0000 -0.0000 -1.0000
usemtl Material
s off
f 4/1/1 1/2/1 2/3/1
f 4/1/1 3/4/1 1/2/1
f 5/5/2 8/6/2 6/7/2
f 5/5/2 7/8/2 8/6/2
