# Blender v2.77 (sub 0) OBJ File: 'AnimationTest.blend'
# www.blender.org
mtllib AnimationTest.mtl
o Cube
v 1.000000 -2.000000 -2.000000
v 1.000000 -2.000000 2.000000
v -1.000000 -2.000000 2.000000
v -1.000000 -2.000000 -2.000001
v -0.000000 2.000000 0.000000
vt 1.000000 1.048828
vt 0.000000 1.048828
vt 0.500000 0.000977
vt 1.000000 1.048828
vt 0.000000 1.048828
vt 0.685547 1.048828
vt 0.837891 0.000977
vt 0.990234 1.048828
vt 0.685547 1.048828
vt 0.990234 1.048828
vt 1.000000 0.167969
vt 0.000000 0.371094
vt 0.000000 0.167969
vt 1.000000 0.371094
vn -0.970100 0.242500 -0.000000
vn 0.970100 0.242500 0.000000
vn 0.000000 0.447200 -0.894400
vn -0.000000 0.447200 0.894400
vn 0.000000 -1.000000 0.000000
usemtl Material
s off
f 4/1/1 3/2/1 5/3/1
f 2/4/2 1/5/2 5/3/2
f 4/6/3 5/7/3 1/8/3
f 3/9/4 2/10/4 5/7/4
f 2/11/5 4/12/5 1/13/5
f 2/11/5 3/14/5 4/12/5
