# Blender v2.77 (sub 0) OBJ File: 'ChamferedCube.blend'
# www.blender.org
mtllib ChamferedCube.mtl
o Cube_Cube.002
v -1.900000 -1.900000 2.000000
v -2.000000 -1.900000 1.900000
v -1.900000 -2.000000 1.900000
v -1.938268 -1.900000 1.992388
v -1.970711 -1.900000 1.970711
v -1.900000 -1.938268 1.992388
v -1.939227 -1.939227 1.983201
v -1.965626 -1.937237 1.965626
v -1.957735 -1.957735 1.957735
v -1.992388 -1.938268 1.900000
v -1.970711 -1.970711 1.900000
v -1.992388 -1.900000 1.938268
v -1.983201 -1.939227 1.939227
v -1.965626 -1.965626 1.937237
v -1.900000 -1.992388 1.938268
v -1.900000 -1.970711 1.970711
v -1.938268 -1.992388 1.900000
v -1.939227 -1.983201 1.939227
v -1.937237 -1.965626 1.965626
v -1.900000 1.900000 2.000000
v -1.900000 2.000000 1.900000
v -2.000000 1.900000 1.900000
v -1.900000 1.938268 1.992388
v -1.900000 1.970711 1.970711
v -1.938268 1.900000 1.992388
v -1.939227 1.939227 1.983201
v -1.937237 1.965626 1.965626
v -1.957735 1.957735 1.957735
v -1.938268 1.992388 1.900000
v -1.970711 1.970711 1.900000
v -1.900000 1.992388 1.938268
v -1.939227 1.983201 1.939227
v -1.965626 1.965626 1.937237
v -1.992388 1.900000 1.938268
v -1.970711 1.900000 1.970711
v -1.992388 1.938268 1.900000
v -1.983201 1.939227 1.939227
v -1.965626 1.937237 1.965626
v -1.900000 -1.900000 -2.000000
v -1.900000 -2.000000 -1.900000
v -2.000000 -1.900000 -1.900000
v -1.900000 -1.938268 -1.992388
v -1.900000 -1.970711 -1.970711
v -1.938268 -1.900000 -1.992388
v -1.939227 -1.939227 -1.983201
v -1.937237 -1.965626 -1.965626
v -1.957735 -1.957735 -1.957735
v -1.938268 -1.992388 -1.900000
v -1.970711 -1.970711 -1.900000
v -1.900000 -1.992388 -1.938268
v -1.939227 -1.983201 -1.939227
v -1.965626 -1.965626 -1.937237
v -1.992388 -1.900000 -1.938268
v -1.970711 -1.900000 -1.970711
v -1.992388 -1.938268 -1.900000
v -1.983201 -1.939227 -1.939227
v -1.965626 -1.937237 -1.965626
v -1.900000 2.000000 -1.900000
v -1.900000 1.900000 -2.000000
v -2.000000 1.900000 -1.900000
v -1.900000 1.992388 -1.938268
v -1.900000 1.970711 -1.970711
v -1.938268 1.992388 -1.900000
v -1.939227 1.983201 -1.939227
v -1.937237 1.965626 -1.965626
v -1.957735 1.957735 -1.957735
v -1.938268 1.900000 -1.992388
v -1.970711 1.900000 -1.970711
v -1.900000 1.938268 -1.992388
v -1.939227 1.939227 -1.983201
v -1.965626 1.937237 -1.965626
v -1.992388 1.938268 -1.900000
v -1.970711 1.970711 -1.900000
v -1.992388 1.900000 -1.938268
v -1.983201 1.939227 -1.939227
v -1.965626 1.965626 -1.937237
v 1.900000 -1.900000 2.000000
v 1.900000 -2.000000 1.900000
v 2.000000 -1.900000 1.900000
v 1.900000 -1.938268 1.992388
v 1.900000 -1.970711 1.970711
v 1.938268 -1.900000 1.992388
v 1.939227 -1.939227 1.983201
v 1.937237 -1.965626 1.965626
v 1.957735 -1.957735 1.957735
v 1.938268 -1.992388 1.900000
v 1.970711 -1.970711 1.900000
v 1.900000 -1.992388 1.938268
v 1.939227 -1.983201 1.939227
v 1.965626 -1.965626 1.937237
v 1.992388 -1.900000 1.938268
v 1.970711 -1.900000 1.970711
v 1.992388 -1.938268 1.900000
v 1.983201 -1.939227 1.939227
v 1.965626 -1.937237 1.965626
v 1.900000 2.000000 1.900000
v 1.900000 1.900000 2.000000
v 2.000000 1.900000 1.900000
v 1.900000 1.992388 1.938268
v 1.900000 1.970711 1.970711
v 1.938268 1.992388 1.900000
v 1.939227 1.983201 1.939227
v 1.937237 1.965626 1.965626
v 1.957735 1.957735 1.957735
v 1.938268 1.900000 1.992388
v 1.970711 1.900000 1.970711
v 1.900000 1.938268 1.992388
v 1.939227 1.939227 1.983201
v 1.965626 1.937237 1.965626
v 1.992388 1.938268 1.900000
v 1.970711 1.970711 1.900000
v 1.992388 1.900000 1.938268
v 1.983201 1.939227 1.939227
v 1.965626 1.965626 1.937237
v 2.000000 -1.900000 -1.900000
v 1.900000 -2.000000 -1.900000
v 1.900000 -1.900000 -2.000000
v 1.992388 -1.938268 -1.900000
v 1.970711 -1.970711 -1.900000
v 1.992388 -1.900000 -1.938268
v 1.983201 -1.939227 -1.939227
v 1.965626 -1.965626 -1.937237
v 1.957735 -1.957735 -1.957735
v 1.900000 -1.992388 -1.938268
v 1.900000 -1.970711 -1.970711
v 1.938268 -1.992388 -1.900000
v 1.939227 -1.983201 -1.939227
v 1.937237 -1.965626 -1.965626
v 1.938268 -1.900000 -1.992388
v 1.970711 -1.900000 -1.970711
v 1.900000 -1.938268 -1.992388
v 1.939227 -1.939227 -1.983201
v 1.965626 -1.937237 -1.965626
v 1.900000 2.000000 -1.900000
v 2.000000 1.900000 -1.900000
v 1.900000 1.900000 -2.000000
v 1.938268 1.992388 -1.900000
v 1.970711 1.970711 -1.900000
v 1.900000 1.992388 -1.938268
v 1.939227 1.983201 -1.939227
v 1.965626 1.965626 -1.937237
v 1.957735 1.957735 -1.957735
v 1.992388 1.900000 -1.938268
v 1.970711 1.900000 -1.970711
v 1.992388 1.938268 -1.900000
v 1.983201 1.939227 -1.939227
v 1.965626 1.937237 -1.965626
v 1.900000 1.938268 -1.992388
v 1.900000 1.970711 -1.970711
v 1.938268 1.900000 -1.992388
v 1.939227 1.939227 -1.983201
v 1.937237 1.965626 -1.965626
vt 0.975000 0.025000
vt 0.025000 0.975000
vt 0.025000 0.025000
vt 0.975000 0.025000
vt 0.025000 0.975000
vt 0.025000 0.025000
vt 0.975000 0.025000
vt 0.025000 0.975000
vt 0.025000 0.025000
vt 0.975000 0.025000
vt 0.025000 0.975000
vt 0.025000 0.025000
vt 0.975000 0.025000
vt 0.025000 0.975000
vt 0.025000 0.025000
vt 0.984567 0.975000
vt 0.975000 0.984567
vt 0.975000 0.975000
vt 1.000000 0.975000
vt 0.984807 0.984807
vt 0.975000 1.000000
vt 1.000000 0.989434
vt 0.984309 1.000000
vt 0.025000 0.984567
vt 0.015433 0.975000
vt 0.025000 0.975000
vt 0.025000 1.000000
vt 0.015193 0.984807
vt 0.000000 0.975000
vt 0.010566 1.000000
vt 0.000000 0.984309
vt 0.015433 0.025000
vt 0.025000 0.015433
vt 0.000000 0.025000
vt 0.015193 0.015193
vt 0.025000 0.000000
vt 0.000000 0.010566
vt 0.015691 0.000000
vt 0.975000 0.015433
vt 0.984567 0.025000
vt 0.975000 0.000000
vt 0.984807 0.015193
vt 1.000000 0.025000
vt 0.989434 0.000000
vt 1.000000 0.015691
vt 0.025000 0.984567
vt 0.015433 0.975000
vt 0.025000 1.000000
vt 0.015193 0.984807
vt 0.000000 0.975000
vt 0.010566 1.000000
vt 0.000000 0.984309
vt 0.015433 0.025000
vt 0.025000 0.015433
vt 0.025000 0.025000
vt 0.000000 0.025000
vt 0.015193 0.015193
vt 0.025000 0.000000
vt 0.000000 0.010566
vt 0.015691 0.000000
vt 0.025000 0.984567
vt 0.015433 0.975000
vt 0.025000 1.000000
vt 0.015193 0.984807
vt 0.000000 0.975000
vt 0.010566 1.000000
vt 0.000000 0.984309
vt 0.975000 0.015433
vt 0.984567 0.025000
vt 0.975000 0.000000
vt 0.984807 0.015193
vt 1.000000 0.025000
vt 0.989434 0.000000
vt 1.000000 0.015691
vt 0.984567 0.975000
vt 0.975000 0.984567
vt 0.975000 0.975000
vt 1.000000 0.975000
vt 0.984807 0.984807
vt 0.975000 1.000000
vt 1.000000 0.989434
vt 0.984309 1.000000
vt 0.984567 0.975000
vt 0.975000 0.984567
vt 0.975000 0.975000
vt 1.000000 0.975000
vt 0.984807 0.984807
vt 0.975000 1.000000
vt 1.000000 0.989434
vt 0.984309 1.000000
vt 0.015433 0.025000
vt 0.025000 0.015433
vt 0.000000 0.025000
vt 0.015193 0.015193
vt 0.025000 0.000000
vt 0.000000 0.010566
vt 0.015691 0.000000
vt 0.975000 0.015433
vt 0.984567 0.025000
vt 0.975000 0.025000
vt 0.975000 0.000000
vt 0.984807 0.015193
vt 1.000000 0.025000
vt 0.989434 0.000000
vt 1.000000 0.015691
vt 0.025000 0.984567
vt 0.015433 0.975000
vt 0.025000 1.000000
vt 0.015193 0.984807
vt 0.000000 0.975000
vt 0.010566 1.000000
vt 0.000000 0.984309
vt 0.025000 0.984567
vt 0.015433 0.975000
vt 0.025000 1.000000
vt 0.015193 0.984807
vt 0.000000 0.975000
vt 0.000000 0.984309
vt 0.984567 0.975000
vt 0.975000 0.984567
vt 0.975000 0.975000
vt 1.000000 0.975000
vt 0.984807 0.984807
vt 0.975000 1.000000
vt 1.000000 0.989434
vt 0.984309 1.000000
vt 0.015433 0.025000
vt 0.025000 0.015433
vt 0.000000 0.025000
vt 0.015193 0.015193
vt 0.025000 0.000000
vt 0.000000 0.010566
vt 0.015691 0.000000
vt 0.015433 0.025000
vt 0.025000 0.015433
vt 0.000000 0.025000
vt 0.015193 0.015193
vt 0.025000 0.000000
vt 0.015691 0.000000
vt 0.975000 0.015433
vt 0.984567 0.025000
vt 0.975000 0.000000
vt 0.984807 0.015193
vt 1.000000 0.025000
vt 0.989434 0.000000
vt 1.000000 0.015691
vt 0.025000 0.984567
vt 0.015433 0.975000
vt 0.025000 1.000000
vt 0.015193 0.984807
vt 0.000000 0.975000
vt 0.010566 1.000000
vt 0.000000 0.984309
vt 0.984567 0.975000
vt 0.975000 0.984567
vt 0.975000 0.975000
vt 1.000000 0.975000
vt 0.984807 0.984807
vt 0.975000 1.000000
vt 1.000000 0.989434
vt 0.984309 1.000000
vt 0.984567 0.975000
vt 0.975000 0.984567
vt 0.975000 0.975000
vt 1.000000 0.975000
vt 0.984807 0.984807
vt 0.975000 1.000000
vt 0.984309 1.000000
vt 0.975000 0.015433
vt 0.984567 0.025000
vt 0.975000 0.000000
vt 0.984807 0.015193
vt 1.000000 0.025000
vt 0.989434 0.000000
vt 1.000000 0.015691
vt 0.015433 0.025000
vt 0.025000 0.015433
vt 0.000000 0.025000
vt 0.015193 0.015193
vt 0.025000 0.000000
vt 0.000000 0.010566
vt 0.015691 0.000000
vt 0.975000 0.015433
vt 0.984567 0.025000
vt 0.975000 0.000000
vt 0.984807 0.015193
vt 1.000000 0.025000
vt 1.000000 0.015691
vt 1.000000 0.984309
vt 0.015691 1.000000
vt 0.000000 0.015691
vt 0.984309 0.000000
vt 0.015691 1.000000
vt 0.000000 0.015691
vt 0.015691 1.000000
vt 0.984309 0.000000
vt 1.000000 0.984309
vt 1.000000 0.984309
vt 0.000000 0.015691
vt 0.984309 0.000000
vt 0.015691 1.000000
vt 0.015691 1.000000
vt 1.000000 0.984309
vt 0.000000 0.015691
vt 0.000000 0.015691
vt 0.984309 0.000000
vt 0.015691 1.000000
vt 1.000000 0.984309
vt 1.000000 0.984309
vt 0.984309 0.000000
vt 0.000000 0.015691
vt 0.984309 0.000000
vn -0.097000 -0.990500 -0.097000
vn 0.097000 -0.990500 0.097000
vn -0.097000 -0.990500 0.097000
vn 0.990500 0.097000 0.097000
vn 0.990500 -0.097000 -0.097000
vn 0.990500 0.097000 -0.097000
vn 0.097000 0.990500 -0.097000
vn -0.097000 0.990500 0.097000
vn 0.097000 0.990500 0.097000
vn -0.097000 0.097000 0.990500
vn 0.097000 -0.097000 0.990500
vn 0.097000 0.097000 0.990500
vn 0.097000 0.097000 -0.990500
vn -0.097000 -0.097000 -0.990500
vn -0.097000 0.097000 -0.990500
vn -0.378300 -0.097200 0.920600
vn -0.097200 -0.378300 0.920600
vn -0.097000 -0.097000 0.990500
vn -0.704100 -0.091900 0.704100
vn -0.370300 -0.370300 0.851900
vn -0.091900 -0.704100 0.704100
vn -0.577300 -0.577300 0.577300
vn -0.326500 -0.668300 0.668300
vn -0.920600 -0.378300 0.097200
vn -0.920600 -0.097200 0.378300
vn -0.990500 -0.097000 0.097000
vn -0.704100 -0.704100 0.091900
vn -0.851900 -0.370300 0.370300
vn -0.668300 -0.326500 0.668300
vn -0.097200 -0.920600 0.378300
vn -0.378300 -0.920600 0.097200
vn -0.370300 -0.851900 0.370300
vn -0.668300 -0.668300 0.326500
vn -0.097200 0.378300 0.920600
vn -0.378300 0.097200 0.920600
vn -0.091900 0.704100 0.704100
vn -0.370300 0.370300 0.851900
vn -0.704100 0.091900 0.704100
vn -0.577300 0.577300 0.577300
vn -0.668300 0.326500 0.668300
vn -0.378300 0.920600 0.097200
vn -0.097200 0.920600 0.378300
vn -0.704100 0.704100 0.091900
vn -0.370300 0.851900 0.370300
vn -0.326500 0.668300 0.668300
vn -0.920600 0.097200 0.378300
vn -0.920600 0.378300 0.097200
vn -0.990500 0.097000 0.097000
vn -0.851900 0.370300 0.370300
vn -0.668300 0.668300 0.326500
vn -0.097200 -0.378300 -0.920600
vn -0.378300 -0.097200 -0.920600
vn -0.091900 -0.704100 -0.704100
vn -0.370300 -0.370300 -0.851900
vn -0.704100 -0.091900 -0.704100
vn -0.577300 -0.577300 -0.577300
vn -0.668300 -0.326500 -0.668300
vn -0.378300 -0.920600 -0.097200
vn -0.097200 -0.920600 -0.378300
vn -0.704100 -0.704100 -0.091900
vn -0.370300 -0.851900 -0.370300
vn -0.326500 -0.668300 -0.668300
vn -0.920600 -0.097200 -0.378300
vn -0.920600 -0.378300 -0.097200
vn -0.990500 -0.097000 -0.097000
vn -0.851900 -0.370300 -0.370300
vn -0.668300 -0.668300 -0.326500
vn -0.097200 0.920600 -0.378300
vn -0.378300 0.920600 -0.097200
vn -0.097000 0.990500 -0.097000
vn -0.091900 0.704100 -0.704100
vn -0.370300 0.851900 -0.370300
vn -0.704100 0.704100 -0.091900
vn -0.577300 0.577300 -0.577300
vn -0.668300 0.668300 -0.326500
vn -0.378300 0.097200 -0.920600
vn -0.097200 0.378300 -0.920600
vn -0.704100 0.091900 -0.704100
vn -0.370300 0.370300 -0.851900
vn -0.326500 0.668300 -0.668300
vn -0.920600 0.378300 -0.097200
vn -0.920600 0.097200 -0.378300
vn -0.990500 0.097000 -0.097000
vn -0.851900 0.370300 -0.370300
vn -0.668300 0.326500 -0.668300
vn 0.097200 -0.378300 0.920600
vn 0.378300 -0.097200 0.920600
vn 0.091900 -0.704100 0.704100
vn 0.370300 -0.370300 0.851900
vn 0.704100 -0.091900 0.704100
vn 0.577300 -0.577300 0.577300
vn 0.668300 -0.326500 0.668300
vn 0.378300 -0.920600 0.097200
vn 0.097200 -0.920600 0.378300
vn 0.704100 -0.704100 0.091900
vn 0.370300 -0.851900 0.370300
vn 0.326500 -0.668300 0.668300
vn 0.920600 -0.097200 0.378300
vn 0.920600 -0.378300 0.097200
vn 0.990500 -0.097000 0.097000
vn 0.851900 -0.370300 0.370300
vn 0.668300 -0.668300 0.326500
vn 0.097200 0.920600 0.378300
vn 0.378300 0.920600 0.097200
vn 0.091900 0.704100 0.704100
vn 0.370300 0.851900 0.370300
vn 0.704100 0.704100 0.091900
vn 0.577300 0.577300 0.577300
vn 0.668300 0.668300 0.326500
vn 0.378300 0.097200 0.920600
vn 0.097200 0.378300 0.920600
vn 0.704100 0.091900 0.704100
vn 0.370300 0.370300 0.851900
vn 0.326500 0.668300 0.668300
vn 0.920600 0.378300 0.097200
vn 0.920600 0.097200 0.378300
vn 0.851900 0.370300 0.370300
vn 0.668300 0.326500 0.668300
vn 0.920600 -0.378300 -0.097200
vn 0.920600 -0.097200 -0.378300
vn 0.704100 -0.704100 -0.091900
vn 0.851900 -0.370300 -0.370300
vn 0.704100 -0.091900 -0.704100
vn 0.577300 -0.577300 -0.577300
vn 0.668300 -0.326500 -0.668300
vn 0.097200 -0.920600 -0.378300
vn 0.378300 -0.920600 -0.097200
vn 0.097000 -0.990500 -0.097000
vn 0.091900 -0.704100 -0.704100
vn 0.370300 -0.851900 -0.370300
vn 0.668300 -0.668300 -0.326500
vn 0.378300 -0.097200 -0.920600
vn 0.097200 -0.378300 -0.920600
vn 0.097000 -0.097000 -0.990500
vn 0.370300 -0.370300 -0.851900
vn 0.326500 -0.668300 -0.668300
vn 0.378300 0.920600 -0.097200
vn 0.097200 0.920600 -0.378300
vn 0.704100 0.704100 -0.091900
vn 0.370300 0.851900 -0.370300
vn 0.091900 0.704100 -0.704100
vn 0.577300 0.577300 -0.577300
vn 0.326500 0.668300 -0.668300
vn 0.920600 0.097200 -0.378300
vn 0.920600 0.378300 -0.097200
vn 0.704100 0.091900 -0.704100
vn 0.851900 0.370300 -0.370300
vn 0.668300 0.668300 -0.326500
vn 0.097200 0.378300 -0.920600
vn 0.378300 0.097200 -0.920600
vn 0.370300 0.370300 -0.851900
vn 0.668300 0.326500 -0.668300
usemtl Material
s 1
f 40/1/1 78/2/2 3/3/3
f 98/4/4 115/5/5 135/6/6
f 134/7/7 21/8/8 96/9/9
f 20/10/10 77/11/11 97/12/12
f 136/13/13 39/14/14 59/15/15
f 4/16/16 6/17/17 1/18/18
f 5/19/19 7/20/20 4/16/16
f 7/20/20 16/21/21 6/17/17
f 7/20/20 9/22/22 19/23/23
f 10/24/24 12/25/25 2/26/26
f 11/27/27 13/28/28 10/24/24
f 13/28/28 5/29/19 12/25/25
f 13/28/28 9/30/22 8/31/29
f 15/32/30 17/33/31 3/3/3
f 16/34/21 18/35/32 15/32/30
f 18/35/32 11/36/27 17/33/31
f 18/35/32 9/37/22 14/38/33
f 23/39/34 25/40/35 20/10/10
f 24/41/36 26/42/37 23/39/34
f 26/42/37 35/43/38 25/40/35
f 26/42/37 28/44/39 38/45/40
f 29/46/41 31/47/42 21/8/8
f 30/48/43 32/49/44 29/46/41
f 32/49/44 24/50/36 31/47/42
f 32/49/44 28/51/39 27/52/45
f 34/53/46 36/54/47 22/55/48
f 35/56/38 37/57/49 34/53/46
f 37/57/49 30/58/43 36/54/47
f 37/57/49 28/59/39 33/60/50
f 42/61/51 44/62/52 39/14/14
f 43/63/53 45/64/54 42/61/51
f 45/64/54 54/65/55 44/62/52
f 45/64/54 47/66/56 57/67/57
f 48/68/58 50/69/59 40/1/1
f 49/70/60 51/71/61 48/68/58
f 51/71/61 43/72/53 50/69/59
f 51/71/61 47/73/56 46/74/62
f 53/75/63 55/76/64 41/77/65
f 54/78/55 56/79/66 53/75/63
f 56/79/66 49/80/60 55/76/64
f 56/79/66 47/81/56 52/82/67
f 61/83/68 63/84/69 58/85/70
f 62/86/71 64/87/72 61/83/68
f 64/87/72 73/88/73 63/84/69
f 64/87/72 66/89/74 76/90/75
f 67/91/76 69/92/77 59/15/15
f 68/93/78 70/94/79 67/91/76
f 70/94/79 62/95/71 69/92/77
f 70/94/79 66/96/74 65/97/80
f 72/98/81 74/99/82 60/100/83
f 73/101/73 75/102/84 72/98/81
f 75/102/84 68/103/78 74/99/82
f 75/102/84 66/104/74 71/105/85
f 80/106/86 82/107/87 77/11/11
f 81/108/88 83/109/89 80/106/86
f 83/109/89 92/110/90 82/107/87
f 83/109/89 85/111/91 95/112/92
f 86/113/93 88/114/94 78/2/2
f 87/115/95 89/116/96 86/113/93
f 89/116/96 81/117/88 88/114/94
f 89/116/96 85/111/91 84/118/97
f 91/119/98 93/120/99 79/121/100
f 92/122/90 94/123/101 91/119/98
f 94/123/101 87/124/95 93/120/99
f 94/123/101 85/125/91 90/126/102
f 99/127/103 101/128/104 96/9/9
f 100/129/105 102/130/106 99/127/103
f 102/130/106 111/131/107 101/128/104
f 102/130/106 104/132/108 114/133/109
f 105/134/110 107/135/111 97/12/12
f 106/136/112 108/137/113 105/134/110
f 108/137/113 100/138/105 107/135/111
f 108/137/113 104/132/108 103/139/114
f 110/140/115 112/141/116 98/4/4
f 111/142/107 113/143/117 110/140/115
f 113/143/117 106/144/112 112/141/116
f 113/143/117 104/145/108 109/146/118
f 118/147/119 120/148/120 115/5/5
f 119/149/121 121/150/122 118/147/119
f 121/150/122 130/151/123 120/148/120
f 121/150/122 123/152/124 133/153/125
f 124/154/126 126/155/127 116/156/128
f 125/157/129 127/158/130 124/154/126
f 127/158/130 119/159/121 126/155/127
f 127/158/130 123/160/124 122/161/131
f 129/162/132 131/163/133 117/164/134
f 130/165/123 132/166/135 129/162/132
f 132/166/135 125/167/129 131/163/133
f 132/166/135 123/160/124 128/168/136
f 137/169/137 139/170/138 134/7/7
f 138/171/139 140/172/140 137/169/137
f 140/172/140 149/173/141 139/170/138
f 140/172/140 142/174/142 152/175/143
f 143/176/144 145/177/145 135/6/6
f 144/178/146 146/179/147 143/176/144
f 146/179/147 138/180/139 145/177/145
f 146/179/147 142/181/142 141/182/148
f 148/183/149 150/184/150 136/13/13
f 149/185/141 151/186/151 148/183/149
f 151/186/151 144/187/146 150/184/150
f 151/186/151 142/174/142 147/188/152
f 20/10/10 4/16/16 1/18/18
f 25/40/35 5/19/19 4/16/16
f 35/56/38 12/25/25 5/29/19
f 34/53/46 2/26/26 12/25/25
f 58/85/70 29/46/41 21/8/8
f 63/84/69 30/48/43 29/46/41
f 73/101/73 36/54/47 30/58/43
f 72/98/81 22/55/48 36/54/47
f 39/14/14 67/91/76 59/15/15
f 44/62/52 68/93/78 67/91/76
f 54/78/55 74/99/82 68/103/78
f 53/75/63 60/100/83 74/99/82
f 3/3/3 48/68/58 40/1/1
f 17/33/31 49/70/60 48/68/58
f 11/27/27 55/76/64 49/80/60
f 10/24/24 41/77/65 55/76/64
f 134/7/7 61/83/68 58/85/70
f 139/170/138 62/86/71 61/83/68
f 149/185/141 69/92/77 62/95/71
f 148/183/149 59/15/15 69/92/77
f 115/5/5 143/176/144 135/6/6
f 120/148/120 144/178/146 143/176/144
f 130/165/123 150/184/150 144/187/146
f 129/162/132 136/13/13 150/184/150
f 40/1/1 124/154/126 116/156/128
f 50/69/59 125/157/129 124/154/126
f 43/63/53 131/163/133 125/167/129
f 42/61/51 117/164/134 131/163/133
f 96/9/9 137/169/137 134/7/7
f 101/128/104 138/171/139 137/169/137
f 111/142/107 145/177/145 138/180/139
f 110/140/115 135/6/6 145/177/145
f 77/11/11 105/134/110 97/12/12
f 82/107/87 106/136/112 105/134/110
f 92/122/90 112/141/116 106/144/112
f 91/119/98 98/4/4 112/141/116
f 116/156/128 86/113/93 78/2/2
f 126/155/127 87/115/95 86/113/93
f 119/149/121 93/120/99 87/124/95
f 118/147/119 79/121/100 93/120/99
f 21/8/8 99/127/103 96/9/9
f 31/47/42 100/129/105 99/127/103
f 24/41/36 107/135/111 100/138/105
f 23/39/34 97/12/12 107/135/111
f 78/2/2 15/32/30 3/3/3
f 88/114/94 16/34/21 15/32/30
f 81/108/88 6/17/17 16/21/21
f 80/106/86 1/18/18 6/17/17
f 60/100/83 2/26/26 22/55/48
f 40/1/1 116/156/128 78/2/2
f 98/4/4 79/121/100 115/5/5
f 134/7/7 58/85/70 21/8/8
f 20/10/10 1/18/18 77/11/11
f 136/13/13 117/164/134 39/14/14
f 4/16/16 7/20/20 6/17/17
f 5/19/19 8/189/29 7/20/20
f 7/20/20 19/23/23 16/21/21
f 7/20/20 8/189/29 9/22/22
f 10/24/24 13/28/28 12/25/25
f 11/27/27 14/190/33 13/28/28
f 13/28/28 8/31/29 5/29/19
f 13/28/28 14/190/33 9/30/22
f 15/32/30 18/35/32 17/33/31
f 16/34/21 19/191/23 18/35/32
f 18/35/32 14/38/33 11/36/27
f 18/35/32 19/191/23 9/37/22
f 23/39/34 26/42/37 25/40/35
f 24/41/36 27/192/45 26/42/37
f 26/42/37 38/45/40 35/43/38
f 26/42/37 27/192/45 28/44/39
f 29/46/41 32/49/44 31/47/42
f 30/48/43 33/193/50 32/49/44
f 32/49/44 27/52/45 24/50/36
f 32/49/44 33/193/50 28/51/39
f 34/53/46 37/57/49 36/54/47
f 35/56/38 38/194/40 37/57/49
f 37/57/49 33/60/50 30/58/43
f 37/57/49 38/194/40 28/59/39
f 42/61/51 45/64/54 44/62/52
f 43/63/53 46/195/62 45/64/54
f 45/64/54 57/67/57 54/65/55
f 45/64/54 46/195/62 47/66/56
f 48/68/58 51/71/61 50/69/59
f 49/70/60 52/196/67 51/71/61
f 51/71/61 46/74/62 43/72/53
f 51/71/61 52/196/67 47/73/56
f 53/75/63 56/79/66 55/76/64
f 54/78/55 57/197/57 56/79/66
f 56/79/66 52/82/67 49/80/60
f 56/79/66 57/197/57 47/81/56
f 61/83/68 64/87/72 63/84/69
f 62/86/71 65/198/80 64/87/72
f 64/87/72 76/90/75 73/88/73
f 64/87/72 65/198/80 66/89/74
f 67/91/76 70/94/79 69/92/77
f 68/93/78 71/199/85 70/94/79
f 70/94/79 65/97/80 62/95/71
f 70/94/79 71/199/85 66/96/74
f 72/98/81 75/102/84 74/99/82
f 73/101/73 76/200/75 75/102/84
f 75/102/84 71/105/85 68/103/78
f 75/102/84 76/200/75 66/104/74
f 80/106/86 83/109/89 82/107/87
f 81/108/88 84/201/97 83/109/89
f 83/109/89 95/112/92 92/110/90
f 83/109/89 84/201/97 85/111/91
f 86/113/93 89/116/96 88/114/94
f 87/115/95 90/202/102 89/116/96
f 89/116/96 84/118/97 81/117/88
f 89/116/96 90/202/102 85/111/91
f 91/119/98 94/123/101 93/120/99
f 92/122/90 95/203/92 94/123/101
f 94/123/101 90/126/102 87/124/95
f 94/123/101 95/203/92 85/125/91
f 99/127/103 102/130/106 101/128/104
f 100/129/105 103/204/114 102/130/106
f 102/130/106 114/133/109 111/131/107
f 102/130/106 103/204/114 104/132/108
f 105/134/110 108/137/113 107/135/111
f 106/136/112 109/205/118 108/137/113
f 108/137/113 103/139/114 100/138/105
f 108/137/113 109/205/118 104/132/108
f 110/140/115 113/143/117 112/141/116
f 111/142/107 114/206/109 113/143/117
f 113/143/117 109/146/118 106/144/112
f 113/143/117 114/206/109 104/145/108
f 118/147/119 121/150/122 120/148/120
f 119/149/121 122/207/131 121/150/122
f 121/150/122 133/153/125 130/151/123
f 121/150/122 122/207/131 123/152/124
f 124/154/126 127/158/130 126/155/127
f 125/157/129 128/208/136 127/158/130
f 127/158/130 122/161/131 119/159/121
f 127/158/130 128/208/136 123/160/124
f 129/162/132 132/166/135 131/163/133
f 130/165/123 133/209/125 132/166/135
f 132/166/135 128/168/136 125/167/129
f 132/166/135 133/209/125 123/160/124
f 137/169/137 140/172/140 139/170/138
f 138/171/139 141/210/148 140/172/140
f 140/172/140 152/175/143 149/173/141
f 140/172/140 141/210/148 142/174/142
f 143/176/144 146/179/147 145/177/145
f 144/178/146 147/211/152 146/179/147
f 146/179/147 141/182/148 138/180/139
f 146/179/147 147/211/152 142/181/142
f 148/183/149 151/186/151 150/184/150
f 149/185/141 152/212/143 151/186/151
f 151/186/151 147/188/152 144/187/146
f 151/186/151 152/212/143 142/174/142
f 20/10/10 25/40/35 4/16/16
f 25/40/35 35/43/38 5/19/19
f 35/56/38 34/53/46 12/25/25
f 34/53/46 22/55/48 2/26/26
f 58/85/70 63/84/69 29/46/41
f 63/84/69 73/88/73 30/48/43
f 73/101/73 72/98/81 36/54/47
f 72/98/81 60/100/83 22/55/48
f 39/14/14 44/62/52 67/91/76
f 44/62/52 54/65/55 68/93/78
f 54/78/55 53/75/63 74/99/82
f 53/75/63 41/77/65 60/100/83
f 3/3/3 17/33/31 48/68/58
f 17/33/31 11/36/27 49/70/60
f 11/27/27 10/24/24 55/76/64
f 10/24/24 2/26/26 41/77/65
f 134/7/7 139/170/138 61/83/68
f 139/170/138 149/173/141 62/86/71
f 149/185/141 148/183/149 69/92/77
f 148/183/149 136/13/13 59/15/15
f 115/5/5 120/148/120 143/176/144
f 120/148/120 130/151/123 144/178/146
f 130/165/123 129/162/132 150/184/150
f 129/162/132 117/164/134 136/13/13
f 40/1/1 50/69/59 124/154/126
f 50/69/59 43/72/53 125/157/129
f 43/63/53 42/61/51 131/163/133
f 42/61/51 39/14/14 117/164/134
f 96/9/9 101/128/104 137/169/137
f 101/128/104 111/131/107 138/171/139
f 111/142/107 110/140/115 145/177/145
f 110/140/115 98/4/4 135/6/6
f 77/11/11 82/107/87 105/134/110
f 82/107/87 92/110/90 106/136/112
f 92/122/90 91/119/98 112/141/116
f 91/119/98 79/121/100 98/4/4
f 116/156/128 126/155/127 86/113/93
f 126/155/127 119/159/121 87/115/95
f 119/149/121 118/147/119 93/120/99
f 118/147/119 115/5/5 79/121/100
f 21/8/8 31/47/42 99/127/103
f 31/47/42 24/50/36 100/129/105
f 24/41/36 23/39/34 107/135/111
f 23/39/34 20/10/10 97/12/12
f 78/2/2 88/114/94 15/32/30
f 88/114/94 81/117/88 16/34/21
f 81/108/88 80/106/86 6/17/17
f 80/106/86 77/11/11 1/18/18
f 60/100/83 41/77/65 2/26/26
