# Blender v2.77 (sub 0) OBJ File: 'floor.blend'
# www.blender.org
mtllib floor_phys.mtl
o Cube.002_Cube.000
v -65.760536 -0.223307 -29.106308
v -65.760536 -6.924382 32.362957
v -65.760536 -0.223317 32.362957
v 71.219879 -0.223307 -29.106308
v -65.760536 -6.924372 -29.106310
v 71.219879 -0.223317 32.362957
v 71.219879 -6.924372 -29.106310
v 71.219879 -6.924382 32.362957
vn -1.000000 0.000000 0.000000
vn 0.000000 0.000000 -1.000000
vn 1.000000 0.000000 0.000000
vn 0.000000 0.000000 1.000000
vn 0.000000 -1.000000 -0.000000
vn 0.000000 1.000000 0.000000
usemtl None.001
s 1
f 1//1 2//1 3//1
f 4//2 5//2 1//2
f 6//3 7//3 4//3
f 3//4 8//4 6//4
f 5//5 8//5 2//5
f 4//6 3//6 6//6
f 1//1 5//1 2//1
f 4//2 7//2 5//2
f 6//3 8//3 7//3
f 3//4 2//4 8//4
f 5//5 7//5 8//5
f 4//6 1//6 3//6
