# Blender v2.75 (sub 0) OBJ File: 'skinbox.blend'
# www.blender.org
o Cube
v -1.207107 -0.292893 -1.207107
v -0.207107 -1.707107 -0.207107
v -0.500000 -0.707107 1.500000
v -1.500000 0.707107 0.500000
v 0.500000 0.707106 -1.500000
v 1.500000 -0.707107 -0.499999
v 1.207107 0.292893 1.207107
v 0.207107 1.707107 0.207107
vt 0.000000 0.000000
vt 1.000000 0.000000
vt 1.000000 1.000000
vn -0.853600 -0.500000 0.146400
vn 0.853600 0.500000 -0.146400
vn 0.146400 -0.500000 -0.853600
vn 0.500000 -0.707100 0.500000
vn -0.146400 0.500000 0.853600
vn -0.500000 0.707100 -0.500000
s off
f 2/1/1 3/2/1 4/3/1
f 8/1/2 7/2/2 6/3/2
f 5/1/3 6/2/3 2/3/3
f 6/1/4 7/2/4 3/3/4
f 3/1/5 7/2/5 8/3/5
f 1/1/6 4/2/6 8/3/6
f 1/1/1 2/2/1 4/3/1
f 5/1/2 8/2/2 6/3/2
f 1/1/3 5/2/3 2/3/3
f 2/1/4 6/2/4 3/3/4
f 4/1/5 3/2/5 8/3/5
f 5/1/6 1/2/6 8/3/6
