# Blender v2.79 (sub 0) OBJ File: 'gameBoard.blend'
# www.blender.org
mtllib boardBottom.mtl
o Bottom_Cube.010
v 3.000000 -6.500000 -0.000000
v 2.985554 -6.598018 -0.000000
v 2.942356 -6.695090 -0.000000
v 2.870821 -6.790284 -0.000000
v 2.771638 -6.882683 -0.000000
v 2.645764 -6.971397 -0.000000
v 2.494409 -7.055570 -0.000000
v 2.319031 -7.134394 -0.000000
v 2.121320 -7.207107 -0.000000
v 1.903180 -7.273011 -0.000000
v 1.666711 -7.331470 -0.000000
v 1.414190 -7.381921 -0.000000
v 1.148050 -7.423879 -0.000000
v 0.870854 -7.456940 -0.000000
v 0.585271 -7.480786 -0.000000
v 0.294051 -7.495185 -0.000000
v -0.000000 -7.500000 -0.000000
v -0.294052 -7.495185 -0.000000
v -0.585272 -7.480785 -0.000000
v -0.870855 -7.456940 -0.000000
v -1.148051 -7.423879 -0.000000
v -1.414191 -7.381921 -0.000000
v -1.666712 -7.331470 -0.000000
v -1.903181 -7.273010 -0.000000
v -2.121321 -7.207107 -0.000000
v -2.319032 -7.134393 0.000000
v -2.494410 -7.055570 0.000000
v -2.645765 -6.971396 0.000000
v -2.771639 -6.882683 0.000000
v -2.870821 -6.790284 0.000000
v -2.942356 -6.695090 0.000000
v -2.985554 -6.598017 0.000000
v -3.000000 -6.500000 0.000000
v -3.000000 -6.000000 0.000000
v 3.000000 -6.000000 -0.000000
vt 0.978470 0.473144
vt 0.990393 0.536606
vt 1.000000 0.666667
vt 0.000000 1.000000
vt 0.000000 0.666668
vt 0.997592 0.601321
vt 0.500000 0.000000
vt 0.002408 0.601321
vt 0.009607 0.536605
vt 0.450991 0.003210
vt 0.402455 0.012809
vt 0.021530 0.473142
vt 0.038060 0.411543
vt 0.059039 0.352401
vt 0.084265 0.296285
vt 0.113495 0.243737
vt 0.146446 0.195261
vt 0.182803 0.151326
vt 0.222215 0.112353
vt 0.264302 0.078719
vt 0.308658 0.050746
vt 0.354858 0.028705
vt 0.549009 0.003210
vt 0.597545 0.012809
vt 0.645142 0.028706
vt 0.691342 0.050747
vt 0.735698 0.078719
vt 0.777785 0.112353
vt 0.817197 0.151325
vt 0.853553 0.195262
vt 0.886505 0.243738
vt 0.915735 0.296287
vt 0.940961 0.352402
vt 0.961940 0.411545
vt 1.000000 0.999999
vn 0.0000 0.0000 1.0000
usemtl None
s off
f 4/1/1 3/2/1 1/3/1
f 1/3/1 34/4/1 33/5/1
f 3/2/1 2/6/1 1/3/1
f 1/3/1 33/5/1 17/7/1
f 33/5/1 32/8/1 31/9/1
f 18/10/1 33/5/1 19/11/1
f 31/9/1 30/12/1 33/5/1
f 30/12/1 29/13/1 33/5/1
f 29/13/1 28/14/1 33/5/1
f 28/14/1 27/15/1 33/5/1
f 27/15/1 26/16/1 33/5/1
f 26/16/1 25/17/1 33/5/1
f 25/17/1 24/18/1 33/5/1
f 24/18/1 23/19/1 33/5/1
f 23/19/1 22/20/1 33/5/1
f 22/20/1 21/21/1 33/5/1
f 21/21/1 20/22/1 33/5/1
f 20/22/1 19/11/1 33/5/1
f 18/10/1 17/7/1 33/5/1
f 17/7/1 16/23/1 1/3/1
f 16/23/1 15/24/1 1/3/1
f 15/24/1 14/25/1 1/3/1
f 14/25/1 13/26/1 1/3/1
f 13/26/1 12/27/1 1/3/1
f 12/27/1 11/28/1 1/3/1
f 11/28/1 10/29/1 1/3/1
f 10/29/1 9/30/1 1/3/1
f 9/30/1 8/31/1 1/3/1
f 8/31/1 7/32/1 1/3/1
f 7/32/1 6/33/1 1/3/1
f 6/33/1 5/34/1 1/3/1
f 5/34/1 4/1/1 1/3/1
f 1/3/1 35/35/1 34/4/1
