# Blender v2.79 (sub 0) OBJ File: 'gameBoard.blend'
# www.blender.org
mtllib boardBottom.mtl
o Bottom_Cylinder.002
v -0.000000 -7.500000 0.000000
v -0.391579 -7.487167 0.000000
v -0.776457 -7.448889 0.000000
v -1.148050 -7.385819 0.000000
v -1.500000 -7.299038 0.000000
v -1.826284 -7.190030 0.000000
v -2.121320 -7.060660 0.000000
v -2.380060 -6.913142 0.000000
v -2.598076 -6.750000 0.000000
v -2.771638 -6.574025 0.000000
v -2.897778 -6.388228 0.000000
v -2.974334 -6.195789 0.000000
v -3.000000 -6.000000 0.000000
v 3.000000 -6.000001 0.000000
v 2.974334 -6.195791 0.000000
v 2.897777 -6.388230 0.000000
v 2.771637 -6.574027 0.000000
v 2.598074 -6.750002 0.000000
v 2.380057 -6.913144 0.000000
v 2.121316 -7.060662 0.000000
v 1.826280 -7.190032 0.000000
v 1.499994 -7.299040 0.000000
v 1.148044 -7.385821 0.000000
v 0.776449 -7.448890 0.000000
v 0.391570 -7.487168 0.000000
vt 0.500000 0.000000
vt 0.933012 0.499999
vt 0.038060 0.617317
vt 0.370591 0.034074
vt 0.434737 0.008555
vt 0.565262 0.008555
vt 0.629408 0.034074
vt 0.691341 0.076120
vt 0.749999 0.133974
vt 0.804380 0.206646
vt 0.853553 0.292892
vt 0.896676 0.391237
vt 0.961940 0.617316
vt 0.982963 0.741180
vt 0.995722 0.869473
vt 1.000000 1.000000
vt 0.000000 1.000000
vt 0.004278 0.869474
vt 0.017037 0.741181
vt 0.066987 0.500000
vt 0.195619 0.206647
vt 0.103323 0.391239
vt 0.146447 0.292893
vt 0.250000 0.133975
vt 0.308658 0.076120
vn 0.0000 0.0000 1.0000
usemtl None
s off
f 1/1/1 18/2/1 10/3/1
f 3/4/1 2/5/1 1/1/1
f 1/1/1 25/6/1 24/7/1
f 24/7/1 23/8/1 1/1/1
f 23/8/1 22/9/1 1/1/1
f 22/9/1 21/10/1 20/11/1
f 20/11/1 19/12/1 18/2/1
f 18/2/1 17/13/1 16/14/1
f 16/14/1 15/15/1 14/16/1
f 14/16/1 13/17/1 12/18/1
f 12/18/1 11/19/1 10/3/1
f 10/3/1 9/20/1 6/21/1
f 9/20/1 8/22/1 6/21/1
f 8/22/1 7/23/1 6/21/1
f 6/21/1 5/24/1 4/25/1
f 4/25/1 3/4/1 1/1/1
f 22/9/1 20/11/1 1/1/1
f 20/11/1 18/2/1 1/1/1
f 18/2/1 16/14/1 10/3/1
f 16/14/1 14/16/1 10/3/1
f 14/16/1 12/18/1 10/3/1
f 6/21/1 4/25/1 1/1/1
f 10/3/1 6/21/1 1/1/1
